<svg width="67" height="67" viewBox="0 0 67 67" fill="none" xmlns="http://www.w3.org/2000/svg">
<path d="M27.9167 8.375H11.1667C10.4263 8.375 9.7162 8.66912 9.19266 9.19266C8.66912 9.7162 8.375 10.4263 8.375 11.1667V27.9167C8.375 28.6571 8.66912 29.3671 9.19266 29.8907C9.7162 30.4142 10.4263 30.7083 11.1667 30.7083H27.9167C28.6571 30.7083 29.3671 30.4142 29.8907 29.8907C30.4142 29.3671 30.7083 28.6571 30.7083 27.9167V11.1667C30.7083 10.4263 30.4142 9.7162 29.8907 9.19266C29.3671 8.66912 28.6571 8.375 27.9167 8.375ZM55.8333 8.375H39.0833C38.3429 8.375 37.6329 8.66912 37.1093 9.19266C36.5858 9.7162 36.2917 10.4263 36.2917 11.1667V27.9167C36.2917 28.6571 36.5858 29.3671 37.1093 29.8907C37.6329 30.4142 38.3429 30.7083 39.0833 30.7083H55.8333C56.5737 30.7083 57.2838 30.4142 57.8073 29.8907C58.3309 29.3671 58.625 28.6571 58.625 27.9167V11.1667C58.625 10.4263 58.3309 9.7162 57.8073 9.19266C57.2838 8.66912 56.5737 8.375 55.8333 8.375ZM27.9167 36.2917H11.1667C10.4263 36.2917 9.7162 36.5858 9.19266 37.1093C8.66912 37.6329 8.375 38.3429 8.375 39.0833V55.8333C8.375 56.5737 8.66912 57.2838 9.19266 57.8073C9.7162 58.3309 10.4263 58.625 11.1667 58.625H27.9167C28.6571 58.625 29.3671 58.3309 29.8907 57.8073C30.4142 57.2838 30.7083 56.5737 30.7083 55.8333V39.0833C30.7083 38.3429 30.4142 37.6329 29.8907 37.1093C29.3671 36.5858 28.6571 36.2917 27.9167 36.2917ZM50.25 39.0833H44.6667V44.6667H39.0833V50.25H44.6667V55.8333H50.25V50.25H55.8333V44.6667H50.25V39.0833Z" fill="#354F52"/>
</svg>
