<svg width="70" height="70" viewBox="0 0 70 70" fill="none" xmlns="http://www.w3.org/2000/svg">
<path d="M43.0791 36.1667C43.5166 36.3708 44.0124 36.4583 44.4791 36.4583C45.4416 36.4583 46.3458 36.0792 47.0458 35.4083L53.4041 29.1667H56.1458C60.5791 29.1667 64.1666 25.5792 64.1666 21.1458V13.8542C64.1666 9.42084 60.5791 5.83334 56.1458 5.83334H43.0208C38.5874 5.83334 34.9999 9.42084 34.9999 13.8542V21.1458C34.9999 24.8208 37.4791 27.9125 40.8333 28.875V32.8125C40.8333 34.2708 41.7374 35.5833 43.0791 36.1667ZM23.3333 39.375C17.7041 39.375 13.1249 34.7958 13.1249 29.1667C13.1249 23.5375 17.7041 18.9583 23.3333 18.9583C28.9624 18.9583 33.5416 23.5375 33.5416 29.1667C33.5416 34.7958 28.9624 39.375 23.3333 39.375ZM23.3333 64.1667C17.3249 64.1667 12.7166 62.5333 9.62494 59.2958C5.72827 55.2008 5.82452 50.0383 5.83327 49.5046V49.4667C5.83327 46.3458 8.45827 43.75 11.6666 43.75H34.9999C38.2083 43.75 40.8333 46.375 40.8333 49.5833L40.8362 49.6008C40.8449 49.9713 40.9674 55.1717 37.0445 59.2958C33.9499 62.5333 29.3416 64.1667 23.3333 64.1667Z" fill="#354F52"/>
</svg>
