<svg width="382" height="290" viewBox="0 0 382 290" fill="none" xmlns="http://www.w3.org/2000/svg">
<g clip-path="url(#clip0_335_213)">
<path d="M353.439 263.594C340.923 273.117 325.675 282.764 310.683 287.312C306.361 288.663 301.902 289.525 297.388 289.882C293.168 290.221 288.92 289.892 284.803 288.906C273.983 286.218 263.948 281.509 254.237 276.007C251.065 274.207 247.929 272.325 244.811 270.401C239.723 267.259 234.684 264.006 229.632 260.832C228.875 260.351 228.123 259.879 227.367 259.412H227.362C226.143 258.647 224.92 257.893 223.695 257.149C223.479 257.016 223.264 256.888 223.044 256.755C220.728 255.354 218.374 253.984 215.979 252.647C215.685 252.486 215.392 252.321 215.099 252.161C210.465 249.593 205.703 247.265 200.831 245.185C197.631 243.838 194.39 242.624 191.116 241.589H191.112C189.86 241.195 188.604 240.824 187.343 240.485C183.563 239.449 179.71 238.696 175.818 238.232C170.454 237.583 165.028 237.626 159.675 238.36C159.313 238.41 158.955 238.461 158.593 238.52C144.106 240.838 130.884 248.652 116.332 250.494C115.86 250.553 115.392 250.608 114.92 250.649C114.719 250.668 114.517 250.691 114.315 250.704C110.086 251.066 105.831 250.962 101.625 250.393C89.8745 248.845 78.4314 244.04 68.1297 237.984C44.0468 223.826 24.5163 202.063 12.6422 176.861C10.6031 172.542 8.79278 168.119 7.2186 163.61C2.81734 151.106 0.393548 137.993 0.0344972 124.744C-1.07956 78.7731 25.0665 32.6514 66.1171 11.8602C107.172 -8.93097 161.179 -2.05554 194.289 29.8847C214.374 49.2605 225.996 75.5163 241.112 98.9733C256.227 122.426 277.711 144.829 305.42 148.246C319.536 149.987 334.308 146.62 347.837 150.999C355.328 153.427 361.719 158.072 366.868 163.99C370.329 168.006 373.226 172.475 375.478 177.273C377.128 180.742 378.467 184.351 379.48 188.056C379.668 188.739 379.842 189.421 380.012 190.104C386.751 217.605 375.982 246.435 353.439 263.594Z" fill="url(#paint0_linear_335_213)"/>
<path d="M127.986 213.808H84.8909C78.4343 213.808 73.2002 219.037 73.2002 225.488V225.488C73.2002 231.939 78.4343 237.169 84.8909 237.169H127.986C134.443 237.169 139.677 231.939 139.677 225.488C139.677 219.037 134.443 213.808 127.986 213.808Z" fill="#3F3D56"/>
<path d="M114.92 231.214V250.649C110.493 251.077 106.032 250.991 101.625 250.393V231.214H114.92Z" fill="#3F3D56"/>
<path d="M159.675 238.36C159.313 238.41 158.955 238.46 158.593 238.52C144.106 240.838 130.884 248.652 116.332 250.494C115.86 250.553 115.392 250.608 114.92 250.649C114.718 250.668 114.517 250.691 114.315 250.704C110.762 247.228 107.209 243.527 103.871 239.693C102.06 237.618 100.309 235.501 98.6629 233.358C94.3901 227.824 90.7682 222.135 88.3751 216.547C88.618 213.867 86.9492 207.67 86.1515 202.924L86.1469 202.92C85.8077 200.927 85.6243 199.196 85.7939 198.083C86.7659 191.661 92.0152 192.398 93.629 186.105C95.0848 184.897 96.6347 183.808 98.2641 182.848C98.5346 182.688 98.8096 182.527 99.0939 182.367L116.607 170.274L123.301 176.834L133.488 186.819L144.527 197.634L135.156 207.093C135.156 207.093 142.987 216.112 152.142 228.136C154.6 231.365 157.153 234.814 159.675 238.36Z" fill="#2F2E41"/>
<path d="M310.683 231.214V287.312C306.361 288.662 301.902 289.524 297.388 289.882V231.214H310.683Z" fill="#3F3D56"/>
<path d="M327.875 226.633H284.78C278.323 226.633 273.089 231.863 273.089 238.314V238.314C273.089 244.765 278.323 249.994 284.78 249.994H327.875C334.332 249.994 339.566 244.765 339.566 238.314C339.566 231.863 334.332 226.633 327.875 226.633Z" fill="#3F3D56"/>
<path d="M223.044 256.755C220.728 255.354 218.373 253.984 215.979 252.647C215.685 252.486 215.392 252.321 215.098 252.161L216.675 251.488L220.93 249.66L220.971 249.642L221.017 249.797L223.044 256.755Z" fill="#FFB6B6"/>
<path d="M229.632 260.832C228.875 260.351 228.123 259.879 227.367 259.412H227.362C226.143 258.647 224.92 257.893 223.695 257.149C223.479 257.016 223.264 256.888 223.044 256.755C220.728 255.354 218.373 253.984 215.979 252.646C215.685 252.486 215.392 252.321 215.098 252.161C210.465 249.593 205.703 247.265 200.831 245.185C197.631 243.838 194.39 242.624 191.116 241.589H191.112L188.54 237.288L176.964 217.917L174.419 213.661C174.419 213.661 165.741 216.226 153.458 218.686C148.988 219.584 144.046 220.463 138.861 221.205C133.318 221.993 127.505 222.621 121.728 222.923C118.973 223.07 116.227 223.143 113.522 223.12C106.53 223.074 99.8138 222.419 93.9318 220.862C91.9695 219.021 86.0554 216.515 81.8192 214.22H81.8146C80.0358 213.258 78.5595 212.338 77.7847 211.518C73.3193 206.8 77.1337 203.121 73.1635 197.973C73.11 196.084 73.2066 194.194 73.4523 192.32C73.4935 192.009 73.5348 191.693 73.5852 191.372L74.8368 170.137L84.1344 168.909L98.2825 167.04L113.609 165.016L115.296 178.217C115.296 178.217 127.23 177.612 142.35 177.814C166.635 178.144 199.13 180.562 203.531 190.942C203.944 191.917 204.357 192.902 204.769 193.887C205.75 196.241 206.722 198.608 207.685 200.987C211.174 209.598 214.502 218.292 217.542 226.51C219.431 231.622 221.21 236.55 222.846 241.163C224.162 244.873 225.382 248.382 226.496 251.611C227.514 254.561 228.435 257.277 229.256 259.714C229.384 260.094 229.508 260.47 229.632 260.832Z" fill="#2F2E41"/>
<path d="M144.103 132.17L114.736 107.251L133.843 87.9315L147.172 109.745L196.583 119.533C198.068 118.416 199.847 117.755 201.703 117.63C203.558 117.506 205.409 117.923 207.031 118.832C208.653 119.74 209.975 121.101 210.836 122.747C211.698 124.394 212.061 126.255 211.882 128.104C211.703 129.954 210.989 131.711 209.827 133.162C208.666 134.612 207.107 135.694 205.341 136.275C203.575 136.856 201.678 136.911 199.881 136.434C198.084 135.956 196.465 134.966 195.221 133.585L144.103 132.17Z" fill="#A0616A"/>
<path d="M88.7827 74.5014C85.3888 85.5326 117.711 111.842 117.711 111.842C118.071 109.194 136.396 132.03 137.643 129.962C141.187 124.084 145.086 109.555 149.177 107.698C151.516 106.636 138.095 91.875 138.095 91.875C138.095 91.875 131.249 82.8257 122.21 71.3567C119.715 68.0669 116.427 65.4613 112.653 63.7826C108.879 62.1038 104.741 61.4064 100.624 61.7553C100.624 61.7553 92.1765 63.4702 88.7827 74.5014Z" fill="#3F3D56"/>
<path d="M103.074 50.0807C114.043 50.0807 122.936 41.1959 122.936 30.2359C122.936 19.2759 114.043 10.391 103.074 10.391C92.1039 10.391 83.2112 19.2759 83.2112 30.2359C83.2112 41.1959 92.1039 50.0807 103.074 50.0807Z" fill="#A0616A"/>
<path d="M113.005 63.1968C117.284 65.7385 119.844 70.4085 121.313 75.1606C124.033 83.9586 125.671 93.055 126.189 102.249L127.741 129.773L146.963 188.38C130.304 202.463 67.6863 191.581 67.6863 191.581C67.6863 191.581 65.7642 190.941 67.6863 189.02C69.6085 187.1 71.4797 188.801 69.5576 186.881C67.6355 184.96 68.9605 187.1 69.6012 185.179C70.242 183.259 69.6012 184.539 68.9605 183.899C68.3198 183.259 73.9207 177.497 73.9207 177.497L68.7949 143.856L62.3877 75.9998C70.0764 66.3975 85.5393 60.737 85.5393 60.737L89.5347 53.5516L109.512 55.1484L113.005 63.1968Z" fill="#3F3D56"/>
<path d="M119.447 19.6926C120.991 20.843 122.134 22.4482 122.717 24.2821C122.941 21.2851 122.955 18.276 122.76 15.277C122.526 13.1696 121.041 12.6955 119.321 12.1462C117.768 11.65 116.012 11.0894 115.539 9.04358C109.296 2.97505 98.4271 3.28106 90.9887 5.39785C86.8957 6.56269 84.5406 8.05927 84.3299 8.93598L84.2862 9.11645L84.12 9.19948C80.965 10.7756 80.3509 15.7526 80.3915 19.6501C80.4683 26.9934 83.006 35.3335 84.4357 36.011C84.5114 36.0469 84.5305 36.0328 84.5632 36.0056C86.7158 34.2868 89.3421 36.1362 90.4963 37.1416C91.177 32.5776 93.3689 28.3732 96.7218 25.1998C100.075 22.0264 104.395 20.0672 108.993 19.635C110.495 19.49 111.985 19.2404 113.452 18.8881C114.196 18.6957 114.961 18.5955 115.729 18.5895C117.052 18.5694 118.349 18.9543 119.447 19.6926Z" fill="#2F2E41"/>
<path d="M94.4195 162.068L88.3436 158.959C88.0181 158.727 87.7869 158.386 87.6922 157.998C87.5975 157.61 87.6456 157.201 87.8279 156.846C88.0101 156.49 88.3142 156.212 88.6847 156.062C89.0551 155.912 89.4672 155.9 89.8457 156.029L95.9216 159.138C96.2471 159.37 96.4784 159.711 96.5731 160.099C96.6678 160.487 96.6196 160.896 96.4374 161.251C96.2552 161.607 95.9511 161.885 95.5806 162.035C95.2101 162.185 94.798 162.197 94.4195 162.068Z" fill="#8FC0A9"/>
<path d="M73.9708 153.739L63.9758 116.562L90.6852 111.51L89.2489 137.028L124.343 173.131C126.201 173.056 128.04 173.521 129.638 174.472C131.235 175.423 132.521 176.818 133.339 178.486C134.157 180.154 134.471 182.025 134.244 183.868C134.016 185.712 133.257 187.45 132.058 188.87C130.859 190.29 129.272 191.331 127.491 191.865C125.711 192.4 123.813 192.405 122.029 191.881C120.245 191.356 118.652 190.325 117.445 188.911C116.238 187.498 115.469 185.765 115.231 183.922L73.9708 153.739Z" fill="#A0616A"/>
<path d="M61.2428 74.879C52.1767 82.0299 63.8131 122.029 63.8131 122.029C65.6147 120.054 67.7083 149.249 69.9104 148.255C76.169 145.43 87.6403 135.687 92.0626 136.481C94.5917 136.935 91.942 117.17 91.942 117.17C91.942 117.17 91.4547 105.836 90.5387 91.2674C90.3562 87.1437 89.1325 83.1331 86.9813 79.6091C84.8301 76.085 81.8216 73.1621 78.2356 71.1123C78.2356 71.1123 70.309 67.7281 61.2428 74.879Z" fill="#3F3D56"/>
<path d="M375.477 177.273L12.6418 176.861C10.6028 172.542 8.79243 168.119 7.21826 163.609L366.867 163.99C370.329 168.006 373.225 172.475 375.477 177.273Z" fill="#3F3D56"/>
<path d="M259.913 273.383C258.038 274.29 256.146 275.165 254.237 276.007C251.065 274.207 247.929 272.325 244.811 270.401L256.374 265.326L259.913 273.383Z" fill="#FFB6B6"/>
<path d="M344.215 210.263C342.335 212.782 340.396 215.251 338.397 217.669C336.554 219.9 334.662 222.088 332.721 224.233C331.919 225.122 331.107 226.006 330.278 226.881C328.751 228.516 327.191 230.124 325.597 231.704C322.727 232.607 316.914 234.196 310.683 235.68C306.149 236.757 301.395 237.778 297.388 238.428C295.145 238.831 292.875 239.073 290.598 239.152C287.893 239.175 285.147 239.102 282.391 238.955C279.283 238.79 276.17 238.534 273.094 238.204C265.094 237.366 257.346 236.06 250.661 234.718C248.213 234.233 245.912 233.738 243.794 233.257C239.782 232.355 236.426 231.512 233.996 230.87C231.259 230.156 229.7 229.693 229.7 229.693L222.846 241.163L219.289 247.113L216.676 251.488L215.979 252.646C215.685 252.486 215.392 252.321 215.099 252.161C210.465 249.593 205.703 247.265 200.831 245.185C197.631 243.838 194.39 242.624 191.116 241.589H191.112C189.86 241.195 188.604 240.824 187.343 240.485C187.738 239.427 188.136 238.361 188.54 237.288C189.292 235.286 190.059 233.266 190.841 231.228C192.533 226.812 194.284 222.332 196.086 217.875C197.562 214.216 199.066 210.569 200.588 206.974C201.29 205.316 202.715 203.859 204.71 202.581C205.663 201.98 206.657 201.448 207.685 200.987C213.393 198.39 221.801 196.7 231.067 195.614C231.832 195.527 232.603 195.44 233.377 195.357C241.047 194.551 249.185 194.134 256.796 193.942C260.605 193.846 264.282 193.809 267.702 193.805C268.807 193.805 269.882 193.808 270.925 193.814H270.93C273.75 193.828 276.344 193.869 278.628 193.915C279.072 193.924 279.503 193.937 279.925 193.947H279.93C280.214 193.951 280.493 193.96 280.769 193.965C285.761 194.093 288.824 194.249 288.824 194.249L290.011 184.941L290.254 183.063L290.483 181.277V181.272L290.511 181.048L290.699 181.043L294 180.979L321.746 180.439L336.903 180.141L334.5 190.429L330.535 207.404C330.938 210.088 344.352 207.986 344.215 210.263Z" fill="#2F2E41"/>
<path d="M263.333 271.688C262.201 272.265 261.059 272.833 259.913 273.383C258.038 274.29 256.146 275.165 254.237 276.007C251.065 274.207 247.929 272.325 244.811 270.401C239.722 267.258 234.684 264.006 229.632 260.832C228.875 260.351 228.123 259.879 227.367 259.412H227.362C225.281 256.325 223.158 253.109 221.017 249.797C220.985 249.752 220.958 249.706 220.93 249.66C220.38 248.817 219.833 247.968 219.289 247.113C215.864 241.754 212.421 236.166 209.079 230.458L217.542 226.51L233.276 219.172L235.991 217.908L243.793 233.257L250.753 246.948L252.303 249.994L263.333 271.688Z" fill="#2F2E41"/>
<path d="M265.705 197.995L305.82 159.342L316.939 127.888L300.538 120.762C292.114 128.825 283.009 153.937 283.009 153.937L255.403 189.026C255.188 189.1 254.974 189.178 254.762 189.271C253.518 189.819 252.437 190.678 251.623 191.765C250.809 192.852 250.29 194.131 250.115 195.477C249.94 196.824 250.116 198.192 250.625 199.451C251.134 200.71 251.96 201.816 253.022 202.663C254.084 203.509 255.347 204.068 256.689 204.285C258.03 204.501 259.405 204.369 260.68 203.899C261.955 203.43 263.087 202.64 263.968 201.606C264.848 200.571 265.446 199.328 265.705 197.995Z" fill="#FFB8B8"/>
<path d="M295.924 124.274L316.726 130.873L316.805 130.86C324.548 129.564 330.973 116.929 334.999 106.558C336.323 103.137 336.299 99.3415 334.929 95.9382C333.56 92.5349 330.949 89.7779 327.623 88.2246C325.162 87.0954 322.434 86.6764 319.747 87.0151C317.06 87.3538 314.522 88.4367 312.418 90.1413L301.736 98.8624L295.924 124.274Z" fill="#8FC0A9"/>
<path d="M344.131 210.726L344.253 210.565C350.743 201.965 341.866 180.666 340.524 177.577L346.559 175.791L345.507 164.311L345.001 159.191L349.693 154.739L349.709 154.626L352.936 131.68L357.158 116.494C358.75 110.753 358.783 104.692 357.256 98.9338C355.728 93.1754 352.694 87.927 348.465 83.7271L339.834 75.1647L329.493 58.9924L312.154 58.5452L305.919 69.6113C300.121 70.7936 294.921 73.9708 291.227 78.5893C287.532 83.2078 285.576 88.975 285.699 94.8862L286.286 124.346L280.065 160.848L279.89 167.478L273.784 173.916L274.913 180.425L270.345 182.243L268.11 191.491C267.257 192.558 261.62 199.677 261.569 201.661C261.561 201.959 261.774 202.253 262.238 202.585C265.886 205.193 286.278 210.844 295.456 207.446C305.232 203.83 343.546 210.621 343.932 210.691L344.131 210.726Z" fill="#8FC0A9"/>
<path d="M319.309 53.5875C331.995 53.5875 342.279 43.3124 342.279 30.6373C342.279 17.9622 331.995 7.68701 319.309 7.68701C306.623 7.68701 296.338 17.9622 296.338 30.6373C296.338 43.3124 306.623 53.5875 319.309 53.5875Z" fill="#FFB8B8"/>
<path d="M316.507 53.8946C320.064 53.9501 323.619 53.7018 327.134 53.1526C330.618 52.4447 338.412 46.7383 340.585 43.3045C342.199 40.7531 343.231 36.7691 343.813 33.8763C344.596 30.0482 344.566 26.0984 343.725 22.2827C342.884 18.4669 341.25 14.8702 338.929 11.7256C338.036 10.4102 336.805 9.36022 335.365 8.68664C335.237 8.63677 335.106 8.59257 334.973 8.55479C332.874 8.00307 330.989 6.83722 329.558 5.20691C329.28 4.87716 328.98 4.5678 328.658 4.28124C327.041 2.91778 325.123 1.95603 323.063 1.4746C319.737 0.585326 314.924 1.46805 308.758 4.10079C305.66 5.42353 302.272 4.94483 299.666 4.37995C299.52 4.35174 299.369 4.36227 299.228 4.41048C299.087 4.4587 298.961 4.54293 298.863 4.65479C297.754 5.6949 296.292 6.27711 294.771 6.2844C293.84 6.32527 292.862 7.61403 291.681 9.29462C291.413 9.67611 291.1 10.1214 290.874 10.3922L290.844 9.87188L290.317 10.4523C289.489 11.3645 288.905 12.4713 288.62 13.6697C288.335 14.868 288.358 16.1189 288.688 17.3059C289.017 18.4928 289.641 19.5773 290.503 20.4582C291.365 21.3391 292.435 21.9878 293.615 22.3439C294.553 22.593 295.513 22.7459 296.481 22.8001C297.067 22.8529 297.674 22.9074 298.255 23.0082C300.121 23.3899 301.856 24.2485 303.291 25.5001C304.725 26.7517 305.81 28.3536 306.44 30.1493C306.589 30.5644 306.831 30.9398 307.149 31.2464C307.466 31.553 307.849 31.7826 308.27 31.9177C308.69 32.0527 309.135 32.0895 309.572 32.0251C310.008 31.9608 310.424 31.797 310.788 31.5465C311.393 31.0754 312.104 30.7576 312.859 30.6202C313.614 30.4828 314.391 30.53 315.124 30.7576C315.758 31.1095 316.251 31.6682 316.521 32.3402C316.849 33.0888 317.393 33.7228 318.083 34.1612C320.444 35.3774 320.607 40.7651 319.759 45.2564C318.941 49.5856 317.326 52.7173 315.83 52.8722C314.678 52.9912 314.546 53.0729 314.463 53.2764L314.389 53.4586L314.518 53.629C315.154 53.8594 315.832 53.95 316.507 53.8946Z" fill="#2F2E41"/>
<path d="M301.628 117.336L292.771 99.6934C279.915 100.571 254.4 115.422 254.4 115.422L206.125 125.648C204.695 125.099 203.145 124.936 201.632 125.175C200.118 125.415 198.695 126.048 197.505 127.012C196.314 127.975 195.399 129.236 194.851 130.665C194.303 132.095 194.141 133.643 194.383 135.155C194.624 136.666 195.26 138.088 196.226 139.276C197.192 140.464 198.454 141.377 199.886 141.923C201.317 142.469 202.867 142.628 204.38 142.385C205.893 142.142 207.315 141.505 208.503 140.539L269.912 136.141L301.628 117.336Z" fill="#FFB8B8"/>
<path d="M298.056 120.233L321.187 103.058L325.261 88.3877C326.051 85.5048 326.017 82.4588 325.165 79.5938C324.312 76.7288 322.675 74.1592 320.438 72.1752C317.387 69.5062 313.435 68.0942 309.382 68.2249C305.329 68.3556 301.476 70.019 298.604 72.879C289.899 81.5597 279.971 93.6702 282.104 102.068L282.125 102.153L298.056 120.233Z" fill="#8FC0A9"/>
<path d="M269.422 166.17H207.529V174.415H269.422V166.17Z" fill="white"/>
<path d="M111.252 166.17H49.3601V174.415H111.252V166.17Z" fill="white"/>
<path d="M118.479 126.52V165.777C118.48 166.277 118.679 166.757 119.033 167.111C119.387 167.465 119.867 167.664 120.368 167.664H178.595C179.095 167.664 179.575 167.465 179.929 167.111C180.283 166.757 180.483 166.277 180.483 165.777V126.52C180.482 126.02 180.282 125.541 179.928 125.188C179.574 124.835 179.095 124.636 178.595 124.635H120.368C119.868 124.636 119.388 124.835 119.034 125.188C118.68 125.541 118.481 126.02 118.479 126.52Z" fill="#3F3D56"/>
<path d="M119.845 127.008V165.293C119.846 165.56 119.952 165.816 120.142 166.005C120.331 166.194 120.587 166.301 120.855 166.301H178.11C178.377 166.301 178.634 166.194 178.823 166.005C179.012 165.816 179.119 165.56 179.119 165.293V127.008C179.119 126.741 179.013 126.484 178.824 126.295C178.634 126.105 178.378 125.998 178.11 125.998H120.855C120.587 125.998 120.33 126.105 120.141 126.295C119.952 126.484 119.845 126.741 119.845 127.008Z" fill="#8FC0A9"/>
<path d="M117.262 173.433C117.369 173.567 117.504 173.675 117.658 173.748C117.813 173.822 117.982 173.86 118.153 173.859H180.5C180.67 173.859 180.839 173.821 180.993 173.747C181.147 173.674 181.282 173.567 181.389 173.435C181.497 173.303 181.573 173.148 181.614 172.983C181.654 172.817 181.656 172.645 181.621 172.478L180.654 167.885C180.613 167.698 180.527 167.523 180.402 167.378C180.278 167.232 180.118 167.12 179.939 167.052C179.81 167.001 179.671 166.975 179.532 166.975H119.117C118.978 166.975 118.839 167.001 118.71 167.052C118.531 167.12 118.371 167.232 118.247 167.378C118.122 167.523 118.035 167.698 117.995 167.885L117.028 172.478C116.993 172.645 116.996 172.817 117.037 172.982C117.077 173.147 117.154 173.301 117.262 173.433Z" fill="#2F2E41"/>
<path d="M177.393 168.954H178.865C178.989 168.954 179.089 168.854 179.089 168.73V168.026C179.089 167.903 178.989 167.803 178.865 167.803H177.393C177.269 167.803 177.169 167.903 177.169 168.026V168.73C177.169 168.854 177.269 168.954 177.393 168.954Z" fill="#3F3D56"/>
<path d="M173.552 168.954H175.025C175.148 168.954 175.249 168.854 175.249 168.73V168.026C175.249 167.903 175.148 167.803 175.025 167.803H173.552C173.428 167.803 173.328 167.903 173.328 168.026V168.73C173.328 168.854 173.428 168.954 173.552 168.954Z" fill="#3F3D56"/>
<path d="M169.712 168.954H171.184C171.308 168.954 171.408 168.854 171.408 168.73V168.026C171.408 167.903 171.308 167.803 171.184 167.803H169.712C169.588 167.803 169.488 167.903 169.488 168.026V168.73C169.488 168.854 169.588 168.954 169.712 168.954Z" fill="#3F3D56"/>
<path d="M165.871 168.954H167.344C167.467 168.954 167.568 168.854 167.568 168.73V168.026C167.568 167.903 167.467 167.803 167.344 167.803H165.871C165.748 167.803 165.647 167.903 165.647 168.026V168.73C165.647 168.854 165.748 168.954 165.871 168.954Z" fill="#3F3D56"/>
<path d="M162.031 168.954H163.503C163.627 168.954 163.727 168.854 163.727 168.73V168.026C163.727 167.903 163.627 167.803 163.503 167.803H162.031C161.907 167.803 161.807 167.903 161.807 168.026V168.73C161.807 168.854 161.907 168.954 162.031 168.954Z" fill="#3F3D56"/>
<path d="M158.19 168.954H159.663C159.786 168.954 159.886 168.854 159.886 168.73V168.026C159.886 167.903 159.786 167.803 159.663 167.803H158.19C158.066 167.803 157.966 167.903 157.966 168.026V168.73C157.966 168.854 158.066 168.954 158.19 168.954Z" fill="#3F3D56"/>
<path d="M154.35 168.954H155.822C155.946 168.954 156.046 168.854 156.046 168.73V168.026C156.046 167.903 155.946 167.803 155.822 167.803H154.35C154.226 167.803 154.126 167.903 154.126 168.026V168.73C154.126 168.854 154.226 168.954 154.35 168.954Z" fill="#3F3D56"/>
<path d="M150.509 168.954H151.982C152.105 168.954 152.206 168.854 152.206 168.73V168.026C152.206 167.903 152.105 167.803 151.982 167.803H150.509C150.386 167.803 150.285 167.903 150.285 168.026V168.73C150.285 168.854 150.386 168.954 150.509 168.954Z" fill="#3F3D56"/>
<path d="M146.669 168.954H148.141C148.265 168.954 148.365 168.854 148.365 168.73V168.026C148.365 167.903 148.265 167.803 148.141 167.803H146.669C146.545 167.803 146.445 167.903 146.445 168.026V168.73C146.445 168.854 146.545 168.954 146.669 168.954Z" fill="#3F3D56"/>
<path d="M142.828 168.954H144.301C144.424 168.954 144.524 168.854 144.524 168.73V168.026C144.524 167.903 144.424 167.803 144.301 167.803H142.828C142.704 167.803 142.604 167.903 142.604 168.026V168.73C142.604 168.854 142.704 168.954 142.828 168.954Z" fill="#3F3D56"/>
<path d="M138.988 168.954H140.46C140.584 168.954 140.684 168.854 140.684 168.73V168.026C140.684 167.903 140.584 167.803 140.46 167.803H138.988C138.864 167.803 138.764 167.903 138.764 168.026V168.73C138.764 168.854 138.864 168.954 138.988 168.954Z" fill="#3F3D56"/>
<path d="M135.147 168.954H136.62C136.743 168.954 136.844 168.854 136.844 168.73V168.026C136.844 167.903 136.743 167.803 136.62 167.803H135.147C135.023 167.803 134.923 167.903 134.923 168.026V168.73C134.923 168.854 135.023 168.954 135.147 168.954Z" fill="#3F3D56"/>
<path d="M131.306 168.954H132.779C132.903 168.954 133.003 168.854 133.003 168.73V168.026C133.003 167.903 132.903 167.803 132.779 167.803H131.306C131.183 167.803 131.083 167.903 131.083 168.026V168.73C131.083 168.854 131.183 168.954 131.306 168.954Z" fill="#3F3D56"/>
<path d="M127.466 168.954H128.939C129.062 168.954 129.162 168.854 129.162 168.73V168.026C129.162 167.903 129.062 167.803 128.939 167.803H127.466C127.342 167.803 127.242 167.903 127.242 168.026V168.73C127.242 168.854 127.342 168.954 127.466 168.954Z" fill="#3F3D56"/>
<path d="M123.625 168.954H125.098C125.222 168.954 125.322 168.854 125.322 168.73V168.026C125.322 167.903 125.222 167.803 125.098 167.803H123.625C123.502 167.803 123.402 167.903 123.402 168.026V168.73C123.402 168.854 123.502 168.954 123.625 168.954Z" fill="#3F3D56"/>
<path d="M119.785 168.954H121.258C121.381 168.954 121.481 168.854 121.481 168.73V168.026C121.481 167.903 121.381 167.803 121.258 167.803H119.785C119.661 167.803 119.561 167.903 119.561 168.026V168.73C119.561 168.854 119.661 168.954 119.785 168.954Z" fill="#3F3D56"/>
<path d="M177.438 170.872H178.911C179.034 170.872 179.135 170.772 179.135 170.649V169.945C179.135 169.821 179.034 169.721 178.911 169.721H177.438C177.314 169.721 177.214 169.821 177.214 169.945V170.649C177.214 170.772 177.314 170.872 177.438 170.872Z" fill="#3F3D56"/>
<path d="M173.597 170.872H175.07C175.194 170.872 175.294 170.772 175.294 170.649V169.945C175.294 169.821 175.194 169.721 175.07 169.721H173.597C173.474 169.721 173.374 169.821 173.374 169.945V170.649C173.374 170.772 173.474 170.872 173.597 170.872Z" fill="#3F3D56"/>
<path d="M169.757 170.872H171.23C171.353 170.872 171.454 170.772 171.454 170.649V169.945C171.454 169.821 171.353 169.721 171.23 169.721H169.757C169.634 169.721 169.533 169.821 169.533 169.945V170.649C169.533 170.772 169.634 170.872 169.757 170.872Z" fill="#3F3D56"/>
<path d="M165.917 170.872H167.389C167.513 170.872 167.613 170.772 167.613 170.649V169.945C167.613 169.821 167.513 169.721 167.389 169.721H165.917C165.793 169.721 165.693 169.821 165.693 169.945V170.649C165.693 170.772 165.793 170.872 165.917 170.872Z" fill="#3F3D56"/>
<path d="M162.076 170.872H163.549C163.672 170.872 163.772 170.772 163.772 170.649V169.945C163.772 169.821 163.672 169.721 163.549 169.721H162.076C161.952 169.721 161.852 169.821 161.852 169.945V170.649C161.852 170.772 161.952 170.872 162.076 170.872Z" fill="#3F3D56"/>
<path d="M158.235 170.872H159.708C159.832 170.872 159.932 170.772 159.932 170.649V169.945C159.932 169.821 159.832 169.721 159.708 169.721H158.235C158.112 169.721 158.012 169.821 158.012 169.945V170.649C158.012 170.772 158.112 170.872 158.235 170.872Z" fill="#3F3D56"/>
<path d="M154.395 170.872H155.868C155.991 170.872 156.092 170.772 156.092 170.649V169.945C156.092 169.821 155.991 169.721 155.868 169.721H154.395C154.272 169.721 154.171 169.821 154.171 169.945V170.649C154.171 170.772 154.272 170.872 154.395 170.872Z" fill="#3F3D56"/>
<path d="M150.555 170.872H152.027C152.151 170.872 152.251 170.772 152.251 170.649V169.945C152.251 169.821 152.151 169.721 152.027 169.721H150.555C150.431 169.721 150.331 169.821 150.331 169.945V170.649C150.331 170.772 150.431 170.872 150.555 170.872Z" fill="#3F3D56"/>
<path d="M146.714 170.872H148.187C148.31 170.872 148.41 170.772 148.41 170.649V169.945C148.41 169.821 148.31 169.721 148.187 169.721H146.714C146.59 169.721 146.49 169.821 146.49 169.945V170.649C146.49 170.772 146.59 170.872 146.714 170.872Z" fill="#3F3D56"/>
<path d="M142.873 170.872H144.346C144.47 170.872 144.57 170.772 144.57 170.649V169.945C144.57 169.821 144.47 169.721 144.346 169.721H142.873C142.75 169.721 142.65 169.821 142.65 169.945V170.649C142.65 170.772 142.75 170.872 142.873 170.872Z" fill="#3F3D56"/>
<path d="M139.033 170.872H140.505C140.629 170.872 140.729 170.772 140.729 170.649V169.945C140.729 169.821 140.629 169.721 140.505 169.721H139.033C138.909 169.721 138.809 169.821 138.809 169.945V170.649C138.809 170.772 138.909 170.872 139.033 170.872Z" fill="#3F3D56"/>
<path d="M135.192 170.872H136.665C136.789 170.872 136.889 170.772 136.889 170.649V169.945C136.889 169.821 136.789 169.721 136.665 169.721H135.192C135.069 169.721 134.969 169.821 134.969 169.945V170.649C134.969 170.772 135.069 170.872 135.192 170.872Z" fill="#3F3D56"/>
<path d="M131.352 170.872H132.825C132.948 170.872 133.048 170.772 133.048 170.649V169.945C133.048 169.821 132.948 169.721 132.825 169.721H131.352C131.228 169.721 131.128 169.821 131.128 169.945V170.649C131.128 170.772 131.228 170.872 131.352 170.872Z" fill="#3F3D56"/>
<path d="M127.511 170.872H128.984C129.108 170.872 129.208 170.772 129.208 170.649V169.945C129.208 169.821 129.108 169.721 128.984 169.721H127.511C127.388 169.721 127.288 169.821 127.288 169.945V170.649C127.288 170.772 127.388 170.872 127.511 170.872Z" fill="#3F3D56"/>
<path d="M123.671 170.872H125.143C125.267 170.872 125.367 170.772 125.367 170.649V169.945C125.367 169.821 125.267 169.721 125.143 169.721H123.671C123.547 169.721 123.447 169.821 123.447 169.945V170.649C123.447 170.772 123.547 170.872 123.671 170.872Z" fill="#3F3D56"/>
<path d="M119.83 170.872H121.303C121.427 170.872 121.527 170.772 121.527 170.649V169.945C121.527 169.821 121.427 169.721 121.303 169.721H119.83C119.707 169.721 119.607 169.821 119.607 169.945V170.649C119.607 170.772 119.707 170.872 119.83 170.872Z" fill="#3F3D56"/>
<path d="M145.562 173.175H160.476C160.6 173.175 160.7 173.075 160.7 172.951V172.247C160.7 172.124 160.6 172.023 160.476 172.023H145.562C145.438 172.023 145.338 172.124 145.338 172.247V172.951C145.338 173.075 145.438 173.175 145.562 173.175Z" fill="#3F3D56"/>
</g>
<defs>
<linearGradient id="paint0_linear_335_213" x1="191" y1="0.00012207" x2="54" y2="366" gradientUnits="userSpaceOnUse">
<stop stop-color="#DEE9D9"/>
<stop offset="1" stop-color="#DEE9D9" stop-opacity="0"/>
</linearGradient>
<clipPath id="clip0_335_213">
<rect width="382" height="290" fill="white"/>
</clipPath>
</defs>
</svg>
