<svg width="81" height="81" viewBox="0 0 81 81" fill="none" xmlns="http://www.w3.org/2000/svg">
<path d="M10.125 40.5C6.4125 40.5 3.375 37.4625 3.375 33.75V16.875C3.375 13.1625 6.4125 10.125 10.125 10.125H37.125C40.8375 10.125 43.875 13.1625 43.875 16.875V33.75C43.875 37.4625 40.8375 40.5 37.125 40.5H30.375V50.625L20.25 40.5H10.125ZM70.875 60.75C74.5875 60.75 77.625 57.7125 77.625 54V37.125C77.625 33.4125 74.5875 30.375 70.875 30.375H50.625V33.75C50.625 41.175 44.55 47.25 37.125 47.25V54C37.125 57.7125 40.1625 60.75 43.875 60.75H50.625V70.875L60.75 60.75H70.875Z" fill="#354F52"/>
</svg>
