<svg width="65" height="53" viewBox="0 0 65 53" fill="none" xmlns="http://www.w3.org/2000/svg">
<g clip-path="url(#clip0_70_741)">
<path d="M60.823 53V47.03C60.823 47.03 63.1673 51.2625 60.823 53Z" fill="#F1F1F1"/>
<path d="M60.9677 52.999L56.5364 48.9616C56.5364 48.9616 61.2633 50.11 60.9677 52.999Z" fill="#F1F1F1"/>
<path d="M19.8263 1.81847C20.3323 1.81847 20.7424 1.41139 20.7424 0.909236C20.7424 0.407079 20.3323 0 19.8263 0C19.3203 0 18.9102 0.407079 18.9102 0.909236C18.9102 1.41139 19.3203 1.81847 19.8263 1.81847Z" fill="#F1F1F1"/>
<path d="M17.4979 4.12923C18.0039 4.12923 18.4141 3.72215 18.4141 3.22C18.4141 2.71784 18.0039 2.31076 17.4979 2.31076C16.992 2.31076 16.5818 2.71784 16.5818 3.22C16.5818 3.72215 16.992 4.12923 17.4979 4.12923Z" fill="#F1F1F1"/>
<path d="M16.9159 45.1453C17.4219 45.1453 17.832 44.7383 17.832 44.2361C17.832 43.734 17.4219 43.3269 16.9159 43.3269C16.4099 43.3269 15.9998 43.734 15.9998 44.2361C15.9998 44.7383 16.4099 45.1453 16.9159 45.1453Z" fill="#F1F1F1"/>
<path d="M48.2356 51.922H47.2392L47.1821 48.1667L48.2356 48.1075V51.922Z" fill="#9F616A"/>
<path d="M48.4907 52.8816L45.2759 52.8815V52.8403C45.2763 52.511 45.4082 52.1952 45.6429 51.9624C45.8775 51.7295 46.1956 51.5985 46.5274 51.5982H48.4907V52.8816Z" fill="#2F2E41"/>
<path d="M53.9398 50.7826L53.0263 51.1779L51.4619 47.758L52.4039 47.286L53.9398 50.7826Z" fill="#9F616A"/>
<path d="M51.6128 52.8361L51.5962 52.7983C51.5305 52.6488 51.4952 52.4879 51.4922 52.3248C51.4891 52.1617 51.5185 51.9996 51.5786 51.8478C51.6387 51.6959 51.7283 51.5574 51.8424 51.4399C51.9565 51.3225 52.0927 51.2285 52.2434 51.1633L54.0431 50.3846L54.5598 51.5611L51.6128 52.8361Z" fill="#2F2E41"/>
<path d="M50.0063 22.2793C51.1987 22.2793 52.1654 21.3199 52.1654 20.1364C52.1654 18.953 51.1987 17.9936 50.0063 17.9936C48.8138 17.9936 47.8472 18.953 47.8472 20.1364C47.8472 21.3199 48.8138 22.2793 50.0063 22.2793Z" fill="#9F616A"/>
<path d="M53.8709 48.99L51.0802 42.2242L52.4357 35.8935L49.8643 35.755L48.449 42.8374L52.0171 49.8604L53.8709 48.99Z" fill="#2F2E41"/>
<path d="M50.8211 34.6273L49.5055 42.7187L49.1099 50.4739L46.8389 50.4541L46.7546 35.6165L50.8211 34.6273Z" fill="#2F2E41"/>
<path d="M52.6261 35.0888L52.4967 36.2607L46.0588 36.5466L46.4947 34.7844L52.6261 35.0888Z" fill="#CBCBCB"/>
<path d="M46.5045 37.3011C46.4429 37.2242 46.3974 37.1359 46.3705 37.0413C46.3436 36.9468 46.3358 36.8479 46.3477 36.7503C46.3596 36.6528 46.3908 36.5586 46.4396 36.4731C46.4885 36.3876 46.5539 36.3126 46.6321 36.2524C46.6649 36.2272 46.6997 36.2047 46.7361 36.1851L49.2611 26.7679L50.7579 27.4207L47.7916 36.521C47.8623 36.6735 47.879 36.8452 47.8389 37.0082C47.7988 37.1713 47.7044 37.3161 47.5709 37.4192C47.4133 37.5428 47.2129 37.5997 47.0133 37.5776C46.8136 37.5555 46.6308 37.4562 46.5045 37.3011Z" fill="#9F616A"/>
<path d="M48.1004 24.3418L48.3982 23.7313C48.3982 23.7313 49.8645 22.4732 51.4112 23.2274L51.6496 23.9322L52.911 25.9538L52.6261 35.2916C52.6261 35.2916 47.3633 34.8945 46.0588 35.3677L46.6322 27.9683L48.1004 24.3418Z" fill="#3F3D56"/>
<path d="M48.3742 36.1926L46.1521 35.5758L48.2071 29.2017L48.3932 25.643C48.4039 25.4632 48.4525 25.2877 48.5359 25.1278C48.6193 24.9679 48.7356 24.8271 48.8772 24.7146C49.0479 24.5773 49.2453 24.4765 49.4571 24.4186C49.6689 24.3607 49.8904 24.3468 50.1078 24.3779C50.8339 24.4766 51.3681 25.0276 51.3778 25.6882L51.3779 25.6914L51.3774 25.6946L50.6638 30.6827L50.4349 31.4947L48.3742 36.1926Z" fill="#CBCBCB"/>
<path d="M50.9849 21.816L51.4765 21.9394L52.2214 21.1534C52.2214 21.1534 53.5904 18.0016 50.5645 17.5193C47.5387 17.037 48.1995 18.2546 47.7949 19.0182L49.0314 19.3373L50.1442 20.4662C50.1442 20.4662 50.8703 19.9384 51.0839 20.4171C51.2974 20.8959 50.9849 21.816 50.9849 21.816Z" fill="#2F2E41"/>
<path d="M33.7686 40.0958H0V6.58194H33.7686V40.0958Z" fill="white"/>
<path d="M33.7686 40.0958H0V6.58194H33.7686V40.0958ZM0.498927 39.6006H33.2696V7.0771H0.498927V39.6006Z" fill="#E5E5E5"/>
<path d="M28.6195 20.9891H6.96265V21.7479H28.6195V20.9891Z" fill="#8FC0A9"/>
<path d="M28.6195 22.9618H6.96265V23.7206H28.6195V22.9618Z" fill="#8FC0A9"/>
<path d="M28.6195 24.9345H6.96265V25.6933H28.6195V24.9345Z" fill="#8FC0A9"/>
<path d="M5.6481 21.9748C5.92365 21.9748 6.14702 21.7531 6.14702 21.4797C6.14702 21.2062 5.92365 20.9845 5.6481 20.9845C5.37255 20.9845 5.14917 21.2062 5.14917 21.4797C5.14917 21.7531 5.37255 21.9748 5.6481 21.9748Z" fill="#8FC0A9"/>
<path d="M28.6195 12.4888H6.96265V13.2475H28.6195V12.4888Z" fill="#E5E5E5"/>
<path d="M28.6195 14.4615H6.96265V15.2202H28.6195V14.4615Z" fill="#E5E5E5"/>
<path d="M28.6195 16.4342H6.96265V17.1929H28.6195V16.4342Z" fill="#E5E5E5"/>
<path d="M5.6481 13.392C5.92365 13.392 6.14702 13.1703 6.14702 12.8968C6.14702 12.6233 5.92365 12.4016 5.6481 12.4016C5.37255 12.4016 5.14917 12.6233 5.14917 12.8968C5.14917 13.1703 5.37255 13.392 5.6481 13.392Z" fill="#E5E5E5"/>
<path d="M28.6195 29.572H6.96265V30.3307H28.6195V29.572Z" fill="#E5E5E5"/>
<path d="M28.6195 31.5447H6.96265V32.3034H28.6195V31.5447Z" fill="#E5E5E5"/>
<path d="M28.6195 33.5174H6.96265V34.2761H28.6195V33.5174Z" fill="#E5E5E5"/>
<path d="M5.6481 30.4751C5.92365 30.4751 6.14702 30.2534 6.14702 29.98C6.14702 29.7065 5.92365 29.4848 5.6481 29.4848C5.37255 29.4848 5.14917 29.7065 5.14917 29.98C5.14917 30.2534 5.37255 30.4751 5.6481 30.4751Z" fill="#E5E5E5"/>
<path d="M64.9168 52.9788H40.0536C40.0316 52.9788 40.0104 52.9701 39.9948 52.9547C39.9792 52.9392 39.9705 52.9182 39.9705 52.8963C39.9705 52.8744 39.9792 52.8534 39.9948 52.838C40.0104 52.8225 40.0316 52.8138 40.0536 52.8138H64.9168C64.9389 52.8138 64.96 52.8225 64.9756 52.838C64.9912 52.8534 65 52.8744 65 52.8963C65 52.9182 64.9912 52.9392 64.9756 52.9547C64.96 52.9701 64.9389 52.9788 64.9168 52.9788Z" fill="#CBCBCB"/>
</g>
<defs>
<clipPath id="clip0_70_741">
<rect width="65" height="53" fill="white"/>
</clipPath>
</defs>
</svg>
