<svg width="71" height="54" viewBox="0 0 71 54" fill="none" xmlns="http://www.w3.org/2000/svg">
<path d="M23.788 39.8125H15.7781C14.5781 39.8125 13.6052 40.7863 13.6052 41.9875V41.9875C13.6052 43.1887 14.5781 44.1625 15.7781 44.1625H23.788C24.988 44.1625 25.9609 43.1887 25.9609 41.9875C25.9609 40.7863 24.988 39.8125 23.788 39.8125Z" fill="#3F3D56"/>
<path d="M21.3594 43.0536V46.6726C20.5366 46.7523 19.7074 46.7363 18.8883 46.6249V43.0536H21.3594Z" fill="#3F3D56"/>
<path d="M29.6778 44.3842C29.6105 44.3936 29.544 44.403 29.4767 44.4141C26.784 44.8457 24.3266 46.3008 21.6219 46.6436C21.5342 46.6547 21.4473 46.665 21.3595 46.6726C21.322 46.6761 21.2845 46.6803 21.247 46.6829C20.5866 46.0355 19.9262 45.3463 19.3059 44.6324C18.9693 44.246 18.6438 43.852 18.3379 43.4528C17.5437 42.4225 16.8706 41.3631 16.4258 40.3226C16.4709 39.8236 16.1607 38.6696 16.0125 37.7859L16.0116 37.7851C15.9486 37.4141 15.9145 37.0917 15.946 36.8844C16.1267 35.6886 17.1023 35.8259 17.4023 34.654C17.6728 34.4292 17.9609 34.2264 18.2638 34.0475C18.314 34.0177 18.3652 33.9878 18.418 33.958L21.6731 31.7062L22.9172 32.9276L24.8105 34.787L26.8624 36.8008L25.1207 38.5621C25.1207 38.5621 26.5761 40.2415 28.2778 42.4805C28.7345 43.0818 29.2092 43.7241 29.6778 44.3842Z" fill="#2F2E41"/>
<path d="M57.7447 43.0536V53.4995C56.9414 53.7509 56.1125 53.9114 55.2736 53.978V43.0536H57.7447Z" fill="#3F3D56"/>
<path d="M60.9402 42.2007H52.9303C51.7303 42.2007 50.7574 43.1745 50.7574 44.3757V44.3757C50.7574 45.5769 51.7303 46.5507 52.9303 46.5507H60.9402C62.1403 46.5507 63.1131 45.5769 63.1131 44.3757C63.1131 43.1745 62.1403 42.2007 60.9402 42.2007Z" fill="#3F3D56"/>
<path d="M41.4557 47.8096C41.0254 47.5486 40.5877 47.2936 40.1426 47.0445C40.0881 47.0147 40.0335 46.984 39.979 46.9541L40.2721 46.8287L41.0629 46.4884L41.0706 46.485L41.0791 46.514L41.4557 47.8096Z" fill="#FFB6B6"/>
<path d="M42.6803 48.5687C42.5397 48.4791 42.3999 48.3913 42.2593 48.3043H42.2585C42.0318 48.1619 41.8046 48.0214 41.5768 47.8829C41.5367 47.8582 41.4967 47.8343 41.4558 47.8096C41.0255 47.5486 40.5878 47.2936 40.1427 47.0445C40.0881 47.0147 40.0336 46.984 39.9791 46.9541C39.1179 46.476 38.2328 46.0424 37.3273 45.6551C36.7325 45.4043 36.1301 45.1783 35.5217 44.9855H35.5208L35.0428 44.1846L32.8912 40.5776L32.4183 39.7852C32.4183 39.7852 30.8052 40.2628 28.5224 40.7209C27.6916 40.888 26.773 41.0518 25.8093 41.19C24.7791 41.3367 23.6986 41.4535 22.6249 41.5098C22.1128 41.5371 21.6024 41.5508 21.0996 41.5465C19.8002 41.538 18.5518 41.416 17.4586 41.126C17.0939 40.7831 15.9946 40.3166 15.2073 39.8893H15.2064C14.8758 39.7101 14.6014 39.5387 14.4574 39.386C13.6275 38.5075 14.3364 37.8226 13.5985 36.8639C13.5885 36.5122 13.6065 36.1603 13.6522 35.8114C13.6598 35.7534 13.6675 35.6945 13.6769 35.6348L13.9095 31.6806L15.6376 31.4521L18.2672 31.1041L21.1158 30.7271L21.4294 33.1852C21.4294 33.1852 23.6475 33.0726 26.4577 33.1102C30.9714 33.1716 37.0112 33.6219 37.8292 35.5547C37.9059 35.7363 37.9826 35.9197 38.0593 36.1031C38.2416 36.5415 38.4223 36.9822 38.6012 37.4251C39.2497 39.0287 39.8683 40.6475 40.4333 42.1777C40.7843 43.1296 41.1149 44.0473 41.4191 44.9062C41.6637 45.5971 41.8904 46.2504 42.0974 46.8517C42.2866 47.401 42.4579 47.9068 42.6104 48.3606C42.6343 48.4314 42.6573 48.5013 42.6803 48.5687Z" fill="#2F2E41"/>
<path d="M26.7836 24.6109L21.3253 19.9708L24.8765 16.3734L27.354 20.4354L36.5376 22.2578C36.8137 22.0498 37.1444 21.9267 37.4892 21.9035C37.834 21.8804 38.1781 21.9581 38.4796 22.1273C38.781 22.2965 39.0268 22.5498 39.1869 22.8564C39.3469 23.163 39.4145 23.5096 39.3812 23.8539C39.3479 24.1982 39.2152 24.5254 38.9993 24.7956C38.7835 25.0657 38.4937 25.2672 38.1655 25.3754C37.8372 25.4836 37.4846 25.4938 37.1506 25.4049C36.8166 25.3159 36.5157 25.1316 36.2845 24.8745L26.7836 24.6109Z" fill="#A0616A"/>
<path d="M16.5015 13.8727C15.8707 15.9268 21.8783 20.8258 21.8783 20.8258C21.945 20.3326 25.3511 24.5849 25.5829 24.1998C26.2415 23.1053 26.9662 20.3999 27.7265 20.0541C28.1613 19.8563 25.6669 17.1078 25.6669 17.1078C25.6669 17.1078 24.3945 15.4227 22.7145 13.2871C22.2507 12.6745 21.6396 12.1894 20.9381 11.8768C20.2366 11.5642 19.4675 11.4343 18.7024 11.4993C18.7024 11.4993 17.1323 11.8186 16.5015 13.8727Z" fill="#3F3D56"/>
<path d="M19.1576 9.32538C21.1965 9.32538 22.8493 7.67097 22.8493 5.63014C22.8493 3.58931 21.1965 1.93489 19.1576 1.93489C17.1188 1.93489 15.4659 3.58931 15.4659 5.63014C15.4659 7.67097 17.1188 9.32538 19.1576 9.32538Z" fill="#A0616A"/>
<path d="M21.0035 11.7677C21.7988 12.241 22.2745 13.1105 22.5477 13.9954C23.0533 15.6337 23.3576 17.3275 23.454 19.0394L23.7425 24.1646L27.3151 35.0777C24.2188 37.7001 12.5804 35.6737 12.5804 35.6737C12.5804 35.6737 12.2231 35.5545 12.5804 35.1969C12.9377 34.8392 13.2855 35.1561 12.9282 34.7985C12.571 34.4409 12.8172 34.8393 12.9363 34.4816C13.0554 34.124 12.9363 34.3625 12.8172 34.2432C12.6981 34.124 13.7391 33.0512 13.7391 33.0512L12.7864 26.7871L11.5956 14.1517C13.0246 12.3637 15.8986 11.3097 15.8986 11.3097L16.6412 9.97168L20.3542 10.269L21.0035 11.7677Z" fill="#3F3D56"/>
<path d="M22.2009 3.66691C22.4878 3.88112 22.7004 4.18001 22.8087 4.52151C22.8503 3.96343 22.8529 3.40313 22.8166 2.84469C22.7731 2.45227 22.4971 2.364 22.1775 2.26172C21.8888 2.16931 21.5624 2.06493 21.4746 1.68398C20.3141 0.55398 18.294 0.610961 16.9115 1.00512C16.1508 1.22202 15.713 1.5007 15.6739 1.66395L15.6658 1.69755L15.6349 1.71301C15.0485 2.00649 14.9343 2.93324 14.9419 3.65899C14.9562 5.02637 15.4278 6.57935 15.6935 6.70551C15.7076 6.71218 15.7112 6.70957 15.7172 6.70449C16.1173 6.38444 16.6055 6.72881 16.82 6.91602C16.9465 6.06618 17.3539 5.28328 17.9771 4.69238C18.6003 4.10148 19.4033 3.73665 20.2579 3.65617C20.537 3.62917 20.8139 3.5827 21.0865 3.51709C21.2248 3.48128 21.367 3.46261 21.5098 3.46149C21.7557 3.45775 21.9969 3.52944 22.2009 3.66691Z" fill="#2F2E41"/>
<path d="M17.5492 30.1782L16.4199 29.5993C16.3594 29.5562 16.3165 29.4927 16.2989 29.4204C16.2812 29.3482 16.2902 29.272 16.3241 29.2058C16.3579 29.1396 16.4145 29.0878 16.4833 29.0599C16.5522 29.0319 16.6288 29.0297 16.6991 29.0537L17.8284 29.6326C17.8889 29.6757 17.9319 29.7392 17.9495 29.8115C17.9671 29.8837 17.9581 29.9599 17.9243 30.0261C17.8904 30.0923 17.8339 30.1441 17.765 30.172C17.6962 30.1999 17.6196 30.2022 17.5492 30.1782Z" fill="#8FC0A9"/>
<path d="M13.7486 28.6272L11.8909 21.7046L16.8552 20.764L16.5882 25.5156L23.1109 32.2383C23.4562 32.2241 23.7982 32.3109 24.0951 32.4879C24.392 32.665 24.631 32.9247 24.783 33.2353C24.935 33.546 24.9935 33.8942 24.9512 34.2376C24.9089 34.5809 24.7677 34.9045 24.5448 35.1689C24.322 35.4333 24.0271 35.6271 23.6961 35.7267C23.3651 35.8262 23.0124 35.8272 22.6808 35.7295C22.3493 35.6319 22.0533 35.4398 21.8289 35.1766C21.6046 34.9135 21.4616 34.5907 21.4173 34.2476L13.7486 28.6272Z" fill="#A0616A"/>
<path d="M11.3829 13.943C9.6978 15.2745 11.8606 22.7226 11.8606 22.7226C12.1954 22.3548 12.5846 27.7912 12.9938 27.6061C14.1571 27.08 16.2892 25.2658 17.1112 25.4137C17.5812 25.4983 17.0887 21.8178 17.0887 21.8178C17.0887 21.8178 16.9982 19.7075 16.8279 16.9946C16.794 16.2267 16.5665 15.48 16.1667 14.8238C15.7669 14.1676 15.2077 13.6233 14.5412 13.2416C14.5412 13.2416 13.0679 12.6114 11.3829 13.943Z" fill="#3F3D56"/>
<path d="M69.7877 33.0095L2.34972 32.9328C1.97074 32.1285 1.63426 31.3049 1.34167 30.4652L68.1874 30.536C68.8308 31.2838 69.3692 32.116 69.7877 33.0095Z" fill="#3F3D56"/>
<path d="M48.3084 50.9057C47.9599 51.0746 47.6083 51.2375 47.2535 51.3945C46.6639 51.0593 46.081 50.7087 45.5016 50.3505L47.6506 49.4054L48.3084 50.9057Z" fill="#FFB6B6"/>
<path d="M63.9771 39.1523C63.6277 39.6215 63.2673 40.0812 62.8958 40.5315C62.5532 40.9469 62.2016 41.3543 61.8408 41.7538C61.6917 41.9193 61.5409 42.0839 61.3867 42.2468C61.1029 42.5513 60.8129 42.8507 60.5167 43.1449C59.9832 43.3129 58.9028 43.6089 57.7447 43.8853C56.902 44.0857 56.0183 44.2759 55.2736 44.397C54.8567 44.4719 54.4349 44.517 54.0116 44.5318C53.5089 44.5361 52.9985 44.5224 52.4863 44.4951C51.9086 44.4644 51.33 44.4166 50.7582 44.3552C49.2713 44.1991 47.8312 43.9561 46.5889 43.7061C46.1338 43.6157 45.7061 43.5236 45.3124 43.4341C44.5668 43.266 43.943 43.1091 43.4914 42.9897C42.9827 42.8566 42.693 42.7705 42.693 42.7705L41.4191 44.9062L40.7578 46.0142L40.2721 46.8287L40.1426 47.0445C40.0881 47.0147 40.0335 46.984 39.979 46.9541C39.1179 46.476 38.2328 46.0424 37.3272 45.6551C36.7325 45.4043 36.13 45.1783 35.5216 44.9855H35.5208C35.2881 44.9122 35.0546 44.8431 34.8203 44.78C34.8936 44.583 34.9677 44.3845 35.0427 44.1846C35.1825 43.8119 35.325 43.4358 35.4705 43.0562C35.7849 42.234 36.1104 41.3998 36.4453 40.5699C36.7197 39.8884 36.9992 39.2095 37.2821 38.5399C37.4124 38.2312 37.6775 37.9599 38.0481 37.722C38.2253 37.6102 38.4101 37.511 38.6012 37.4252C39.662 36.9415 41.2248 36.6268 42.9469 36.4247C43.0892 36.4085 43.2324 36.3923 43.3764 36.3769C44.802 36.2268 46.3145 36.1492 47.729 36.1133C48.4371 36.0954 49.1205 36.0886 49.7562 36.0878C49.9615 36.0878 50.1612 36.0883 50.3552 36.0895H50.3561C50.8801 36.092 51.3624 36.0997 51.7868 36.1082C51.8694 36.1099 51.9495 36.1125 52.0279 36.1142H52.0288C52.0816 36.115 52.1336 36.1168 52.1847 36.1176C53.1126 36.1415 53.6819 36.1705 53.6819 36.1705L53.9026 34.4373L53.9477 34.0876L53.9903 33.755V33.7541L53.9954 33.7123L54.0304 33.7115L54.6439 33.6995L59.8009 33.5989L62.618 33.5435L62.1715 35.4591L61.4344 38.6201C61.5094 39.1199 64.0027 38.7284 63.9771 39.1523Z" fill="#2F2E41"/>
<path d="M48.9441 50.5902C48.7337 50.6976 48.5215 50.8034 48.3085 50.9057C47.96 51.0746 47.6083 51.2375 47.2535 51.3945C46.6639 51.0593 46.081 50.7087 45.5016 50.3505C44.5558 49.7654 43.6193 49.1598 42.6803 48.5687C42.5397 48.4791 42.3999 48.3913 42.2593 48.3043H42.2585C41.8716 47.7294 41.4771 47.1307 41.0791 46.514C41.0732 46.5055 41.0681 46.4969 41.0629 46.4884C40.9607 46.3315 40.859 46.1734 40.7579 46.0142C40.1214 45.0162 39.4814 43.9757 38.8602 42.9129L40.4332 42.1777L43.3577 40.8113L43.8621 40.5759L45.3124 43.4341L46.6059 45.9835L46.8939 46.5507L48.9441 50.5902Z" fill="#2F2E41"/>
<path d="M49.3849 36.868L56.8409 29.6706L58.9075 23.8136L55.8592 22.4868C54.2935 23.9881 52.601 28.6641 52.601 28.6641L47.4702 35.1979C47.4302 35.2116 47.3903 35.2262 47.351 35.2436C47.1199 35.3456 46.919 35.5055 46.7677 35.708C46.6164 35.9104 46.5198 36.1485 46.4873 36.3992C46.4548 36.6499 46.4875 36.9048 46.5821 37.1391C46.6768 37.3735 46.8302 37.5795 47.0276 37.7372C47.2251 37.8949 47.4598 37.9989 47.7091 38.0392C47.9584 38.0796 48.2139 38.0548 48.4509 37.9674C48.6879 37.8801 48.8984 37.733 49.062 37.5404C49.2256 37.3478 49.3368 37.1162 49.3849 36.868Z" fill="#FFB8B8"/>
<path d="M55.0015 23.1408L58.868 24.3694L58.8825 24.367C60.3216 24.1257 61.5158 21.773 62.2641 19.8419C62.5103 19.2049 62.5057 18.4981 62.2512 17.8644C61.9968 17.2306 61.5114 16.7173 60.8933 16.428C60.4358 16.2178 59.9288 16.1397 59.4294 16.2028C58.93 16.2659 58.4582 16.4675 58.0672 16.7849L56.0818 18.4089L55.0015 23.1408Z" fill="#8FC0A9"/>
<path d="M63.9616 39.2387L63.9842 39.2087C65.1906 37.6072 63.5406 33.6413 63.2912 33.0661L64.4129 32.7335L64.2174 30.5958L64.1232 29.6425L64.9953 28.8135L64.9983 28.7923L65.5981 24.5198L66.3829 21.692C66.6786 20.623 66.6849 19.4944 66.401 18.4222C66.117 17.3499 65.5531 16.3726 64.7672 15.5906L63.1629 13.9962L61.2408 10.9848L58.0182 10.9015L56.8593 12.9621C55.7817 13.1823 54.8153 13.7739 54.1286 14.6339C53.4418 15.4939 53.0783 16.5678 53.1013 17.6685L53.2104 23.1542L52.054 29.9509L52.0216 31.1855L50.8866 32.3844L51.0965 33.5963L50.2475 33.9348L49.8321 35.657C49.6734 35.8557 48.6258 37.1812 48.6162 37.5507C48.6148 37.6062 48.6543 37.6609 48.7406 37.7227C49.4187 38.2083 53.2089 39.2606 54.9147 38.6279C56.7317 37.9546 63.8529 39.2192 63.9246 39.232L63.9616 39.2387Z" fill="#C8D5B9"/>
<path d="M59.348 9.97838C61.7059 9.97838 63.6174 8.06507 63.6174 5.70488C63.6174 3.34469 61.7059 1.43138 59.348 1.43138C56.9901 1.43138 55.0786 3.34469 55.0786 5.70488C55.0786 8.06507 56.9901 9.97838 59.348 9.97838Z" fill="#FFB8B8"/>
<path d="M58.8271 10.0355C59.4883 10.0459 60.1491 9.99964 60.8024 9.89737C61.4499 9.76557 62.8985 8.703 63.3024 8.06359C63.6024 7.58851 63.7942 6.84665 63.9024 6.308C64.048 5.59519 64.0425 4.85971 63.8861 4.14919C63.7297 3.43866 63.426 2.76894 62.9946 2.18338C62.8288 1.93845 62.5999 1.74294 62.3322 1.61751C62.3085 1.60822 62.2841 1.59999 62.2594 1.59296C61.8693 1.49022 61.5188 1.27314 61.2529 0.969561C61.2013 0.908159 61.1454 0.850554 61.0856 0.797194C60.785 0.54331 60.4287 0.364225 60.0458 0.274579C59.4276 0.10899 58.5331 0.273359 57.387 0.763594C56.8112 1.0099 56.1815 0.920759 55.6971 0.815576C55.6699 0.810322 55.6418 0.812282 55.6156 0.821261C55.5895 0.830239 55.5661 0.845923 55.5478 0.866752C55.3417 1.06043 55.07 1.16884 54.7873 1.1702C54.6142 1.17781 54.4325 1.41778 54.2129 1.73072C54.1631 1.80176 54.105 1.88466 54.063 1.93509L54.0574 1.83821L53.9595 1.94629C53.8055 2.11615 53.697 2.32225 53.6441 2.54539C53.5911 2.76853 53.5954 3.00145 53.6566 3.22247C53.7178 3.44349 53.8339 3.64542 53.994 3.80945C54.1542 3.97348 54.3532 4.09428 54.5725 4.16059C54.7467 4.20698 54.9251 4.23544 55.1051 4.24554C55.2141 4.25536 55.3268 4.26551 55.4349 4.28428C55.7817 4.35536 56.1041 4.51523 56.3707 4.74829C56.6374 4.98135 56.8391 5.27963 56.9562 5.61401C56.9838 5.6913 57.0289 5.76119 57.0878 5.81829C57.1468 5.87538 57.2181 5.91815 57.2962 5.94329C57.3743 5.96843 57.4571 5.97528 57.5382 5.96329C57.6194 5.95131 57.6967 5.92082 57.7642 5.87418C57.8768 5.78645 58.0089 5.72727 58.1492 5.70169C58.2895 5.67611 58.434 5.68489 58.5702 5.72727C58.6879 5.7928 58.7796 5.89684 58.8298 6.02196C58.8908 6.16136 58.9919 6.27941 59.1201 6.36106C59.559 6.58752 59.5892 7.59074 59.4316 8.42704C59.2797 9.23317 58.9794 9.81633 58.7013 9.84516C58.4873 9.86732 58.4628 9.88254 58.4473 9.92044L58.4335 9.95436L58.4575 9.98609C58.5757 10.029 58.7018 10.0459 58.8271 10.0355Z" fill="#2F2E41"/>
<path d="M56.0617 21.8487L54.4155 18.5636C52.0261 18.727 47.2838 21.4923 47.2838 21.4923L38.3112 23.3966C38.0454 23.2943 37.7573 23.2639 37.4761 23.3085C37.1948 23.3531 36.9302 23.471 36.709 23.6505C36.4877 23.8299 36.3176 24.0645 36.2158 24.3307C36.1139 24.5969 36.0839 24.8852 36.1288 25.1667C36.1736 25.4482 36.2918 25.7129 36.4713 25.9341C36.6509 26.1554 36.8855 26.3254 37.1515 26.427C37.4176 26.5286 37.7057 26.5583 37.9868 26.5131C38.268 26.4678 38.5323 26.3493 38.7531 26.1693L50.1668 25.3504L56.0617 21.8487Z" fill="#FFB8B8"/>
<path d="M55.3977 22.3881L59.6969 19.1901L60.4542 16.4584C60.601 15.9216 60.5947 15.3544 60.4363 14.8209C60.2779 14.2874 59.9736 13.8089 59.5577 13.4395C58.9906 12.9425 58.2562 12.6796 57.5028 12.7039C56.7495 12.7283 56.0335 13.038 55.4996 13.5706C53.8817 15.187 52.0364 17.442 52.4328 19.0057L52.4368 19.0216L55.3977 22.3881Z" fill="#C8D5B9"/>
<path d="M50.0757 30.942H38.5721V32.4773H50.0757V30.942Z" fill="white"/>
<path d="M20.6779 30.942H9.17432V32.4773H20.6779V30.942Z" fill="white"/>
<path d="M22.0211 23.5589V30.8688C22.0212 30.962 22.0582 31.0513 22.124 31.1172C22.1898 31.1831 22.279 31.2201 22.3721 31.2202H33.1943C33.2874 31.2201 33.3766 31.1831 33.4424 31.1172C33.5082 31.0513 33.5453 30.962 33.5453 30.8688V23.5589C33.5451 23.4658 33.508 23.3766 33.4423 23.3108C33.3765 23.245 33.2873 23.208 33.1943 23.2079H22.3721C22.2791 23.2081 22.19 23.245 22.1242 23.3108C22.0584 23.3766 22.0213 23.4658 22.0211 23.5589Z" fill="#3F3D56"/>
<path d="M22.2749 23.6498V30.7787C22.275 30.8284 22.2948 30.8761 22.3299 30.9113C22.3651 30.9465 22.4128 30.9663 22.4625 30.9664H33.1041C33.1539 30.9663 33.2015 30.9465 33.2367 30.9113C33.2719 30.8761 33.2916 30.8284 33.2917 30.7787V23.6498C33.2917 23.6 33.272 23.5522 33.2368 23.5169C33.2016 23.4816 33.1539 23.4618 33.1041 23.4617H22.4625C22.4127 23.4618 22.365 23.4816 22.3298 23.5169C22.2947 23.5522 22.2749 23.6 22.2749 23.6498Z" fill="#C8D5B9"/>
<path d="M21.7948 32.2945C21.8146 32.3194 21.8398 32.3394 21.8685 32.3532C21.8972 32.3669 21.9286 32.374 21.9604 32.3738H33.5484C33.5801 32.3738 33.6114 32.3666 33.64 32.353C33.6686 32.3393 33.6938 32.3194 33.7138 32.2948C33.7337 32.2702 33.748 32.2414 33.7554 32.2106C33.7629 32.1797 33.7634 32.1476 33.7569 32.1166L33.577 31.2613C33.5695 31.2264 33.5535 31.194 33.5303 31.1669C33.5071 31.1398 33.4775 31.119 33.4442 31.1063C33.4201 31.0968 33.3944 31.092 33.3686 31.092H22.1395C22.1136 31.092 22.088 31.0968 22.0639 31.1063C22.0306 31.119 22.001 31.1398 21.9778 31.1669C21.9546 31.194 21.9386 31.2264 21.9311 31.2613L21.7512 32.1166C21.7448 32.1476 21.7454 32.1797 21.7529 32.2104C21.7605 32.2412 21.7748 32.2699 21.7948 32.2945Z" fill="#2F2E41"/>
<path d="M32.971 31.4604H33.2447C33.2676 31.4604 33.2863 31.4417 33.2863 31.4187V31.2876C33.2863 31.2647 33.2676 31.246 33.2447 31.246H32.971C32.948 31.246 32.9293 31.2647 32.9293 31.2876V31.4187C32.9293 31.4417 32.948 31.4604 32.971 31.4604Z" fill="#3F3D56"/>
<path d="M32.2571 31.4604H32.5308C32.5538 31.4604 32.5724 31.4417 32.5724 31.4187V31.2876C32.5724 31.2647 32.5538 31.246 32.5308 31.246H32.2571C32.2341 31.246 32.2155 31.2647 32.2155 31.2876V31.4187C32.2155 31.4417 32.2341 31.4604 32.2571 31.4604Z" fill="#3F3D56"/>
<path d="M31.5433 31.4604H31.817C31.84 31.4604 31.8586 31.4417 31.8586 31.4187V31.2876C31.8586 31.2647 31.84 31.246 31.817 31.246H31.5433C31.5204 31.246 31.5017 31.2647 31.5017 31.2876V31.4187C31.5017 31.4417 31.5204 31.4604 31.5433 31.4604Z" fill="#3F3D56"/>
<path d="M30.8295 31.4604H31.1032C31.1261 31.4604 31.1448 31.4417 31.1448 31.4187V31.2876C31.1448 31.2647 31.1261 31.246 31.1032 31.246H30.8295C30.8065 31.246 30.7879 31.2647 30.7879 31.2876V31.4187C30.7879 31.4417 30.8065 31.4604 30.8295 31.4604Z" fill="#3F3D56"/>
<path d="M30.1156 31.4604H30.3893C30.4123 31.4604 30.4309 31.4417 30.4309 31.4187V31.2876C30.4309 31.2647 30.4123 31.246 30.3893 31.246H30.1156C30.0926 31.246 30.074 31.2647 30.074 31.2876V31.4187C30.074 31.4417 30.0926 31.4604 30.1156 31.4604Z" fill="#3F3D56"/>
<path d="M29.4019 31.4604H29.6756C29.6985 31.4604 29.7172 31.4417 29.7172 31.4187V31.2876C29.7172 31.2647 29.6985 31.246 29.6756 31.246H29.4019C29.3789 31.246 29.3603 31.2647 29.3603 31.2876V31.4187C29.3603 31.4417 29.3789 31.4604 29.4019 31.4604Z" fill="#3F3D56"/>
<path d="M28.688 31.4604H28.9617C28.9847 31.4604 29.0033 31.4417 29.0033 31.4187V31.2876C29.0033 31.2647 28.9847 31.246 28.9617 31.246H28.688C28.665 31.246 28.6464 31.2647 28.6464 31.2876V31.4187C28.6464 31.4417 28.665 31.4604 28.688 31.4604Z" fill="#3F3D56"/>
<path d="M27.9742 31.4604H28.248C28.2709 31.4604 28.2896 31.4417 28.2896 31.4187V31.2876C28.2896 31.2647 28.2709 31.246 28.248 31.246H27.9742C27.9513 31.246 27.9326 31.2647 27.9326 31.2876V31.4187C27.9326 31.4417 27.9513 31.4604 27.9742 31.4604Z" fill="#3F3D56"/>
<path d="M27.2604 31.4604H27.5341C27.5571 31.4604 27.5757 31.4417 27.5757 31.4187V31.2876C27.5757 31.2647 27.5571 31.246 27.5341 31.246H27.2604C27.2374 31.246 27.2188 31.2647 27.2188 31.2876V31.4187C27.2188 31.4417 27.2374 31.4604 27.2604 31.4604Z" fill="#3F3D56"/>
<path d="M26.5466 31.4604H26.8203C26.8433 31.4604 26.8619 31.4417 26.8619 31.4187V31.2876C26.8619 31.2647 26.8433 31.246 26.8203 31.246H26.5466C26.5237 31.246 26.505 31.2647 26.505 31.2876V31.4187C26.505 31.4417 26.5237 31.4604 26.5466 31.4604Z" fill="#3F3D56"/>
<path d="M25.8328 31.4604H26.1065C26.1294 31.4604 26.1481 31.4417 26.1481 31.4187V31.2876C26.1481 31.2647 26.1294 31.246 26.1065 31.246H25.8328C25.8098 31.246 25.7912 31.2647 25.7912 31.2876V31.4187C25.7912 31.4417 25.8098 31.4604 25.8328 31.4604Z" fill="#3F3D56"/>
<path d="M25.1189 31.4604H25.3926C25.4156 31.4604 25.4342 31.4417 25.4342 31.4187V31.2876C25.4342 31.2647 25.4156 31.246 25.3926 31.246H25.1189C25.0959 31.246 25.0773 31.2647 25.0773 31.2876V31.4187C25.0773 31.4417 25.0959 31.4604 25.1189 31.4604Z" fill="#3F3D56"/>
<path d="M24.4052 31.4604H24.6789C24.7018 31.4604 24.7205 31.4417 24.7205 31.4187V31.2876C24.7205 31.2647 24.7018 31.246 24.6789 31.246H24.4052C24.3822 31.246 24.3636 31.2647 24.3636 31.2876V31.4187C24.3636 31.4417 24.3822 31.4604 24.4052 31.4604Z" fill="#3F3D56"/>
<path d="M23.6913 31.4604H23.965C23.988 31.4604 24.0066 31.4417 24.0066 31.4187V31.2876C24.0066 31.2647 23.988 31.246 23.965 31.246H23.6913C23.6683 31.246 23.6497 31.2647 23.6497 31.2876V31.4187C23.6497 31.4417 23.6683 31.4604 23.6913 31.4604Z" fill="#3F3D56"/>
<path d="M22.9775 31.4604H23.2512C23.2742 31.4604 23.2928 31.4417 23.2928 31.4187V31.2876C23.2928 31.2647 23.2742 31.246 23.2512 31.246H22.9775C22.9546 31.246 22.9359 31.2647 22.9359 31.2876V31.4187C22.9359 31.4417 22.9546 31.4604 22.9775 31.4604Z" fill="#3F3D56"/>
<path d="M22.2637 31.4604H22.5374C22.5604 31.4604 22.579 31.4417 22.579 31.4187V31.2876C22.579 31.2647 22.5604 31.246 22.5374 31.246H22.2637C22.2407 31.246 22.2221 31.2647 22.2221 31.2876V31.4187C22.2221 31.4417 22.2407 31.4604 22.2637 31.4604Z" fill="#3F3D56"/>
<path d="M32.9794 31.8176H33.2531C33.2761 31.8176 33.2947 31.799 33.2947 31.776V31.6449C33.2947 31.6219 33.2761 31.6033 33.2531 31.6033H32.9794C32.9564 31.6033 32.9378 31.6219 32.9378 31.6449V31.776C32.9378 31.799 32.9564 31.8176 32.9794 31.8176Z" fill="#3F3D56"/>
<path d="M32.2655 31.8176H32.5392C32.5622 31.8176 32.5808 31.799 32.5808 31.776V31.6449C32.5808 31.6219 32.5622 31.6033 32.5392 31.6033H32.2655C32.2425 31.6033 32.2239 31.6219 32.2239 31.6449V31.776C32.2239 31.799 32.2425 31.8176 32.2655 31.8176Z" fill="#3F3D56"/>
<path d="M31.5518 31.8176H31.8255C31.8484 31.8176 31.8671 31.799 31.8671 31.776V31.6449C31.8671 31.6219 31.8484 31.6033 31.8255 31.6033H31.5518C31.5288 31.6033 31.5102 31.6219 31.5102 31.6449V31.776C31.5102 31.799 31.5288 31.8176 31.5518 31.8176Z" fill="#3F3D56"/>
<path d="M30.8379 31.8176H31.1116C31.1346 31.8176 31.1532 31.799 31.1532 31.776V31.6449C31.1532 31.6219 31.1346 31.6033 31.1116 31.6033H30.8379C30.8149 31.6033 30.7963 31.6219 30.7963 31.6449V31.776C30.7963 31.799 30.8149 31.8176 30.8379 31.8176Z" fill="#3F3D56"/>
<path d="M30.1241 31.8176H30.3979C30.4208 31.8176 30.4395 31.799 30.4395 31.776V31.6449C30.4395 31.6219 30.4208 31.6033 30.3979 31.6033H30.1241C30.1012 31.6033 30.0825 31.6219 30.0825 31.6449V31.776C30.0825 31.799 30.1012 31.8176 30.1241 31.8176Z" fill="#3F3D56"/>
<path d="M29.4103 31.8176H29.684C29.707 31.8176 29.7256 31.799 29.7256 31.776V31.6449C29.7256 31.6219 29.707 31.6033 29.684 31.6033H29.4103C29.3873 31.6033 29.3687 31.6219 29.3687 31.6449V31.776C29.3687 31.799 29.3873 31.8176 29.4103 31.8176Z" fill="#3F3D56"/>
<path d="M28.6964 31.8176H28.9701C28.9931 31.8176 29.0117 31.799 29.0117 31.776V31.6449C29.0117 31.6219 28.9931 31.6033 28.9701 31.6033H28.6964C28.6734 31.6033 28.6548 31.6219 28.6548 31.6449V31.776C28.6548 31.799 28.6734 31.8176 28.6964 31.8176Z" fill="#3F3D56"/>
<path d="M27.9827 31.8176H28.2564C28.2793 31.8176 28.298 31.799 28.298 31.776V31.6449C28.298 31.6219 28.2793 31.6033 28.2564 31.6033H27.9827C27.9597 31.6033 27.9411 31.6219 27.9411 31.6449V31.776C27.9411 31.799 27.9597 31.8176 27.9827 31.8176Z" fill="#3F3D56"/>
<path d="M27.2688 31.8176H27.5425C27.5655 31.8176 27.5841 31.799 27.5841 31.776V31.6449C27.5841 31.6219 27.5655 31.6033 27.5425 31.6033H27.2688C27.2458 31.6033 27.2272 31.6219 27.2272 31.6449V31.776C27.2272 31.799 27.2458 31.8176 27.2688 31.8176Z" fill="#3F3D56"/>
<path d="M26.5551 31.8176H26.8288C26.8517 31.8176 26.8704 31.799 26.8704 31.776V31.6449C26.8704 31.6219 26.8517 31.6033 26.8288 31.6033H26.5551C26.5321 31.6033 26.5135 31.6219 26.5135 31.6449V31.776C26.5135 31.799 26.5321 31.8176 26.5551 31.8176Z" fill="#3F3D56"/>
<path d="M25.8412 31.8176H26.1149C26.1379 31.8176 26.1565 31.799 26.1565 31.776V31.6449C26.1565 31.6219 26.1379 31.6033 26.1149 31.6033H25.8412C25.8182 31.6033 25.7996 31.6219 25.7996 31.6449V31.776C25.7996 31.799 25.8182 31.8176 25.8412 31.8176Z" fill="#3F3D56"/>
<path d="M25.1274 31.8176H25.4011C25.4241 31.8176 25.4427 31.799 25.4427 31.776V31.6449C25.4427 31.6219 25.4241 31.6033 25.4011 31.6033H25.1274C25.1045 31.6033 25.0858 31.6219 25.0858 31.6449V31.776C25.0858 31.799 25.1045 31.8176 25.1274 31.8176Z" fill="#3F3D56"/>
<path d="M24.4136 31.8176H24.6873C24.7103 31.8176 24.7289 31.799 24.7289 31.776V31.6449C24.7289 31.6219 24.7103 31.6033 24.6873 31.6033H24.4136C24.3906 31.6033 24.372 31.6219 24.372 31.6449V31.776C24.372 31.799 24.3906 31.8176 24.4136 31.8176Z" fill="#3F3D56"/>
<path d="M23.6997 31.8176H23.9734C23.9964 31.8176 24.015 31.799 24.015 31.776V31.6449C24.015 31.6219 23.9964 31.6033 23.9734 31.6033H23.6997C23.6767 31.6033 23.6581 31.6219 23.6581 31.6449V31.776C23.6581 31.799 23.6767 31.8176 23.6997 31.8176Z" fill="#3F3D56"/>
<path d="M22.986 31.8176H23.2597C23.2826 31.8176 23.3013 31.799 23.3013 31.776V31.6449C23.3013 31.6219 23.2826 31.6033 23.2597 31.6033H22.986C22.963 31.6033 22.9444 31.6219 22.9444 31.6449V31.776C22.9444 31.799 22.963 31.8176 22.986 31.8176Z" fill="#3F3D56"/>
<path d="M22.2721 31.8176H22.5458C22.5688 31.8176 22.5874 31.799 22.5874 31.776V31.6449C22.5874 31.6219 22.5688 31.6033 22.5458 31.6033H22.2721C22.2491 31.6033 22.2305 31.6219 22.2305 31.6449V31.776C22.2305 31.799 22.2491 31.8176 22.2721 31.8176Z" fill="#3F3D56"/>
<path d="M27.0546 32.2463H29.8267C29.8497 32.2463 29.8683 32.2277 29.8683 32.2047V32.0736C29.8683 32.0506 29.8497 32.032 29.8267 32.032H27.0546C27.0317 32.032 27.013 32.0506 27.013 32.0736V32.2047C27.013 32.2277 27.0317 32.2463 27.0546 32.2463Z" fill="#3F3D56"/>
</svg>
