<svg width="68" height="63" viewBox="0 0 68 63" fill="none" xmlns="http://www.w3.org/2000/svg">
<g clip-path="url(#clip0_64_232)">
<path d="M32.0588 0.525935L29.9781 1.65257L4.34228 15.533L2.26149 16.6596C1.25183 17.2078 0.5025 18.131 0.177903 19.2267C-0.146694 20.3224 -0.0200525 21.5011 0.530046 22.5043L19.6204 57.2248C20.1728 58.2268 21.1031 58.9704 22.2072 59.2925C23.3114 59.6146 24.4992 59.4889 25.5101 58.943L25.5155 58.9401L55.3021 42.8123L55.3075 42.8094C56.3171 42.2612 57.0665 41.338 57.3911 40.2423C57.7157 39.1466 57.589 37.9679 57.0389 36.9647L37.9486 2.24415C37.3962 1.24221 36.4659 0.498612 35.3617 0.176495C34.2576 -0.145622 33.0697 -0.0199514 32.0588 0.525935Z" fill="#272D2D"/>
<path d="M32.6571 1.61418L30.1925 2.9486L5.32419 16.4135L2.85967 17.7479C2.14066 18.1382 1.60705 18.7956 1.37589 19.5759C1.14474 20.3562 1.23492 21.1956 1.62666 21.91L20.717 56.6305C21.1104 57.344 21.7729 57.8736 22.5592 58.103C23.3455 58.3323 24.1913 58.2428 24.9112 57.8541L24.9166 57.8512L54.7032 41.7233L54.7086 41.7204C55.4276 41.3301 55.9612 40.6726 56.1924 39.8924C56.4235 39.1121 56.3333 38.2727 55.9416 37.5583L36.8512 2.83778C36.4579 2.12427 35.7954 1.59474 35.0091 1.36535C34.2228 1.13596 33.3769 1.22545 32.6571 1.61418Z" fill="white"/>
<path d="M33.068 12.3914L21.9588 18.4065C21.7905 18.4976 21.5926 18.5187 21.4086 18.465C21.2247 18.4114 21.0698 18.2874 20.978 18.1204C20.8861 17.9534 20.8649 17.757 20.919 17.5745C20.9731 17.3919 21.098 17.2382 21.2663 17.1471L32.3755 11.132C32.5438 11.0409 32.7417 11.0198 32.9257 11.0735C33.1096 11.1272 33.2645 11.2511 33.3564 11.4181C33.4482 11.5851 33.4694 11.7815 33.4153 11.964C33.3612 12.1466 33.2363 12.3003 33.068 12.3914Z" fill="#C5C6C6"/>
<path d="M36.8541 13.0994L23.1272 20.5318C22.9589 20.6229 22.761 20.644 22.5771 20.5903C22.3932 20.5367 22.2382 20.4127 22.1464 20.2457C22.0546 20.0787 22.0334 19.8823 22.0875 19.6998C22.1415 19.5172 22.2665 19.3635 22.4347 19.2724L36.1616 11.84C36.2449 11.7949 36.3364 11.7665 36.4308 11.7565C36.5252 11.7464 36.6206 11.7549 36.7117 11.7815C36.8028 11.8081 36.8877 11.8522 36.9616 11.9113C37.0355 11.9704 37.0969 12.0434 37.1424 12.1261C37.1879 12.2088 37.2165 12.2996 37.2266 12.3933C37.2367 12.4869 37.2281 12.5817 37.2014 12.672C37.1746 12.7624 37.1301 12.8467 37.0705 12.92C37.011 12.9934 36.9374 13.0543 36.8541 13.0994Z" fill="#C5C6C6"/>
<path d="M17.3915 15.9026L7.14943 21.4482C7.06881 21.4919 7.00896 21.5655 6.98306 21.653C6.95715 21.7404 6.96731 21.8345 7.01128 21.9146L11.3726 29.8467C11.4166 29.9267 11.4909 29.9861 11.579 30.0118C11.6671 30.0375 11.7619 30.0275 11.8426 29.9838L22.0847 24.4383C22.1653 24.3946 22.2251 24.3209 22.251 24.2335C22.2769 24.146 22.2668 24.052 22.2228 23.9719L17.8615 16.0398C17.8175 15.9597 17.7432 15.9004 17.6551 15.8746C17.567 15.8489 17.4722 15.859 17.3915 15.9026Z" fill="#C5C6C6"/>
<path d="M38.5801 22.4561L23.5117 30.6148C23.4284 30.6599 23.3369 30.6883 23.2425 30.6983C23.1482 30.7084 23.0527 30.6999 22.9616 30.6733C22.8705 30.6467 22.7856 30.6026 22.7117 30.5435C22.6378 30.4844 22.5764 30.4114 22.5309 30.3287C22.4855 30.246 22.4569 30.1552 22.4467 30.0615C22.4366 29.9679 22.4452 29.8731 22.472 29.7828C22.4987 29.6924 22.5432 29.6081 22.6028 29.5348C22.6624 29.4615 22.7359 29.4005 22.8193 29.3554L37.8876 21.1967C38.0559 21.1056 38.2538 21.0845 38.4377 21.1382C38.6216 21.1918 38.7766 21.3158 38.8684 21.4828C38.9602 21.6498 38.9814 21.8462 38.9274 22.0287C38.8733 22.2112 38.7484 22.365 38.5801 22.4561Z" fill="#C5C6C6"/>
<path d="M42.3661 23.1641L24.6802 32.7401C24.5119 32.8312 24.314 32.8522 24.1301 32.7986C23.9461 32.7449 23.7912 32.6209 23.6994 32.4539C23.6076 32.2869 23.5864 32.0905 23.6404 31.908C23.6945 31.7255 23.8194 31.5718 23.9877 31.4806L41.6736 21.9047C41.8419 21.8135 42.0398 21.7925 42.2238 21.8461C42.4077 21.8998 42.5626 22.0238 42.6544 22.1908C42.7463 22.3578 42.7675 22.5542 42.7134 22.7367C42.6593 22.9192 42.5344 23.073 42.3661 23.1641Z" fill="#C5C6C6"/>
<path d="M17.7731 37.2965C19.4669 37.2965 20.8399 35.9339 20.8399 34.2531C20.8399 32.5723 19.4669 31.2098 17.7731 31.2098C16.0794 31.2098 14.7063 32.5723 14.7063 34.2531C14.7063 35.9339 16.0794 37.2965 17.7731 37.2965Z" fill="#C5C6C6"/>
<path d="M63.6591 14.8321H29.7149C28.564 14.8334 27.4607 15.2876 26.6469 16.0952C25.8331 16.9028 25.3753 17.9977 25.374 19.1398V58.6923C25.3753 59.8344 25.8331 60.9293 26.6469 61.7369C27.4607 62.5445 28.564 62.9987 29.7149 63H63.6591C64.81 62.9987 65.9134 62.5445 66.7272 61.7369C67.541 60.9293 67.9987 59.8344 68 58.6923V19.1398C67.9987 17.9977 67.541 16.9028 66.7272 16.0952C65.9134 15.2876 64.81 14.8334 63.6591 14.8321Z" fill="#272D2D"/>
<path d="M63.6592 16.0722H29.715C28.8955 16.0731 28.1097 16.3966 27.5302 16.9717C26.9507 17.5468 26.6247 18.3265 26.6238 19.1398V58.6923C26.6247 59.5056 26.9507 60.2853 27.5302 60.8604C28.1097 61.4355 28.8955 61.759 29.715 61.7599H63.6592C64.4788 61.759 65.2645 61.4355 65.8441 60.8604C66.4236 60.2853 66.7495 59.5056 66.7505 58.6923V19.1398C66.7495 18.3265 66.4236 17.5468 65.8441 16.9717C65.2645 16.3966 64.4788 16.0731 63.6592 16.0722Z" fill="white"/>
<path d="M58.8181 25.7282H46.1628C45.9711 25.7282 45.7872 25.6526 45.6517 25.518C45.5161 25.3835 45.4399 25.2011 45.4399 25.0108C45.4399 24.8206 45.5161 24.6381 45.6517 24.5036C45.7872 24.369 45.9711 24.2935 46.1628 24.2935H58.8181C58.9131 24.2934 59.0072 24.3118 59.095 24.3478C59.1828 24.3838 59.2626 24.4367 59.3298 24.5033C59.397 24.5699 59.4503 24.649 59.4867 24.7361C59.5231 24.8232 59.5418 24.9165 59.5418 25.0108C59.5418 25.1051 59.5231 25.1984 59.4867 25.2855C59.4503 25.3726 59.397 25.4517 59.3298 25.5183C59.2626 25.585 59.1828 25.6378 59.095 25.6738C59.0072 25.7098 58.9131 25.7283 58.8181 25.7282Z" fill="#8FC0A9"/>
<path d="M61.8 28.1492H46.1628C45.9711 28.1492 45.7872 28.0736 45.6517 27.9391C45.5161 27.8045 45.4399 27.6221 45.4399 27.4318C45.4399 27.2416 45.5161 27.0591 45.6517 26.9246C45.7872 26.7901 45.9711 26.7145 46.1628 26.7145H61.8C61.9917 26.7145 62.1756 26.7901 62.3111 26.9246C62.4467 27.0591 62.5229 27.2416 62.5229 27.4318C62.5229 27.6221 62.4467 27.8045 62.3111 27.9391C62.1756 28.0736 61.9917 28.1492 61.8 28.1492Z" fill="#8FC0A9"/>
<path d="M43.3622 21.3594H31.6947C31.6029 21.3595 31.5148 21.3957 31.4499 21.4601C31.3849 21.5246 31.3484 21.612 31.3484 21.7032V30.7392C31.3484 30.8304 31.3849 30.9178 31.4499 30.9823C31.5148 31.0467 31.6029 31.0829 31.6947 31.083H43.3622C43.4541 31.0829 43.5422 31.0467 43.6071 30.9823C43.6721 30.9178 43.7085 30.8304 43.7086 30.7392V21.7032C43.7085 21.612 43.672 21.5246 43.6071 21.4601C43.5421 21.3957 43.4541 21.3595 43.3622 21.3594Z" fill="#E6E6E6"/>
<path d="M34.8951 26.9082C34.8999 27.671 34.6165 28.4079 34.1009 28.9737C33.5908 29.5293 32.8313 29.8978 32.0648 29.7454C31.3591 29.605 30.7856 28.9929 30.8571 28.2524C30.869 28.092 30.916 27.9361 30.9948 27.7956C31.0736 27.655 31.1823 27.5332 31.3134 27.4387C31.4445 27.3442 31.5948 27.2791 31.7538 27.2481C31.9129 27.2171 32.0768 27.2209 32.2342 27.2592C32.9046 27.4319 33.1718 28.3907 32.6131 28.8408C32.479 28.9488 32.2864 28.7599 32.4217 28.6509C32.7911 28.3534 32.677 27.7025 32.2312 27.5393C31.7122 27.3492 31.1623 27.758 31.125 28.2845C31.0808 28.9088 31.5627 29.3789 32.1537 29.4896C32.793 29.6093 33.4269 29.2846 33.8601 28.8364C34.3566 28.316 34.6306 27.6248 34.6245 26.9082C34.6257 26.8734 34.6405 26.8404 34.6657 26.8162C34.691 26.792 34.7247 26.7785 34.7598 26.7785C34.7949 26.7785 34.8286 26.792 34.8538 26.8162C34.8791 26.8404 34.8939 26.8734 34.8951 26.9082Z" fill="#2F2E41"/>
<path d="M37.5374 28.6153C40.2036 28.6153 42.3649 26.4705 42.3649 23.8248C42.3649 21.179 40.2036 19.0342 37.5374 19.0342C34.8713 19.0342 32.71 21.179 32.71 23.8248C32.71 26.4705 34.8713 28.6153 37.5374 28.6153Z" fill="#8FC0A9"/>
<path d="M37.2904 25.8688L37.2854 25.6898C37.621 25.6805 37.9169 25.6596 38.1392 25.4984C38.2023 25.4501 38.2541 25.3889 38.2911 25.319C38.3282 25.2491 38.3496 25.172 38.354 25.0931C38.3579 25.0449 38.3506 24.9964 38.3325 24.9515C38.3145 24.9066 38.2863 24.8664 38.25 24.834C38.1024 24.7103 37.865 24.7504 37.6919 24.8291L37.5426 24.897L37.8289 22.8213L38.0076 22.8456L37.7641 24.6113C37.9993 24.5427 38.2172 24.5722 38.3665 24.6973C38.4238 24.747 38.4688 24.8091 38.4979 24.8788C38.527 24.9486 38.5394 25.0241 38.5343 25.0994C38.529 25.2054 38.5005 25.309 38.4506 25.4029C38.4007 25.4968 38.3308 25.5788 38.2456 25.643C37.96 25.8502 37.5887 25.8605 37.2904 25.8688Z" fill="#2F2E41"/>
<path d="M39.8632 22.9978H38.8916V23.1769H39.8632V22.9978Z" fill="#2F2E41"/>
<path d="M36.7963 22.9978H35.8247V23.1769H36.7963V22.9978Z" fill="#2F2E41"/>
<path d="M34.8635 31.0829C35.2254 30.8551 35.6164 30.6766 36.0262 30.5521C35.9871 30.4142 35.9877 30.2682 36.028 30.1306C36.0824 29.9567 36.192 29.805 36.3404 29.698C36.4888 29.5911 36.6681 29.5346 36.8515 29.5371H38.0278C38.2115 29.5348 38.3911 29.5914 38.5398 29.6984C38.6885 29.8055 38.7984 29.9574 38.8531 30.1314C38.8934 30.2688 38.894 30.4145 38.8549 30.5521C39.2646 30.6767 39.6557 30.8553 40.0176 31.0829H34.8635Z" fill="#2F2E41"/>
<path d="M43.0672 22.0469C42.9792 21.9412 42.871 21.8538 42.7488 21.79C42.6416 21.7344 42.5225 21.7052 42.4015 21.7049C42.2354 21.707 42.0741 21.7608 41.9406 21.8589C41.5734 22.1167 41.3191 22.6725 41.3191 23.3161C41.3191 24.1235 41.7196 24.793 42.24 24.9094C42.293 24.9212 42.3472 24.9272 42.4015 24.9273C42.9977 24.9273 43.4839 24.205 43.4839 23.3161C43.4839 22.8005 43.3206 22.3413 43.0672 22.0469Z" fill="#3F3D56"/>
<path d="M33.1524 21.8204H33.1515C33.0309 21.7461 32.8921 21.7061 32.7501 21.7049C32.6292 21.7052 32.5101 21.7344 32.4029 21.79C32.2806 21.8538 32.1724 21.9412 32.0845 22.0469L32.0835 22.0477C31.831 22.3422 31.6677 22.8014 31.6677 23.3161C31.6677 24.0107 31.9636 24.6033 32.3785 24.8297C32.4921 24.8929 32.6199 24.9265 32.7501 24.9273C32.7791 24.9273 32.808 24.9255 32.8367 24.9219H32.8376C33.3933 24.8557 33.8325 24.1611 33.8325 23.3161C33.8325 22.6394 33.5502 22.0585 33.1524 21.8204Z" fill="#3F3D56"/>
<path d="M32.4462 24.6757C32.4676 24.6757 32.4888 24.6706 32.5079 24.6609C32.527 24.6511 32.5435 24.637 32.556 24.6197C32.5686 24.6024 32.5768 24.5824 32.58 24.5613C32.5831 24.5402 32.5812 24.5187 32.5744 24.4985C32.3158 23.7354 32.238 22.9234 32.3471 22.1256C32.4561 21.3279 32.7491 20.5658 33.2032 19.8986C33.6573 19.2315 34.2603 18.6772 34.9654 18.2789C35.6704 17.8807 36.4585 17.6491 37.2684 17.6022C38.0784 17.5553 38.8883 17.6943 39.6352 18.0086C40.3822 18.3228 41.046 18.8037 41.5752 19.4139C42.1045 20.0241 42.4847 20.7472 42.6866 21.527C42.8884 22.3068 42.9063 23.1222 42.7388 23.91C42.7314 23.9448 42.7383 23.9812 42.7579 24.011C42.7775 24.0408 42.8082 24.0617 42.8433 24.0691C42.8784 24.0764 42.915 24.0696 42.9451 24.0502C42.9752 24.0308 42.9962 24.0003 43.0036 23.9654C43.1798 23.1372 43.161 22.2798 42.9489 21.4599C42.7368 20.64 42.337 19.8797 41.7807 19.2381C41.2243 18.5965 40.5263 18.0908 39.7409 17.7605C38.9556 17.4301 38.1041 17.2839 37.2525 17.3332C36.401 17.3825 35.5723 17.626 34.8311 18.0448C34.0898 18.4636 33.4558 19.0464 32.9784 19.7479C32.5011 20.4494 32.1931 21.2507 32.0786 22.0895C31.964 22.9283 32.0459 23.7821 32.318 24.5843C32.327 24.611 32.3443 24.6341 32.3673 24.6505C32.3902 24.6669 32.4178 24.6757 32.4462 24.6757Z" fill="#3F3D56"/>
<path d="M39.9624 20.7209C40.1536 20.9799 40.0594 21.3288 39.858 21.5521C39.5959 21.8426 39.178 21.8609 38.8151 21.807C38.4079 21.7465 37.976 21.5572 37.5637 21.6847C37.2124 21.7935 36.9617 22.1097 36.5967 22.1892C36.273 22.2596 35.8858 22.1663 35.7723 21.8239C35.7178 21.6594 35.979 21.5889 36.0333 21.7526C36.1067 21.9741 36.4237 21.9697 36.6053 21.9083C36.8963 21.81 37.1207 21.5708 37.4067 21.4565C37.744 21.3218 38.11 21.3826 38.4534 21.4594C38.777 21.5317 39.1495 21.6389 39.472 21.5038C39.7106 21.4038 39.9004 21.0889 39.7288 20.8565C39.6258 20.7169 39.8605 20.5828 39.9624 20.7209Z" fill="#2F2E41"/>
<path d="M58.7991 37.1832H41.6338C41.5388 37.1832 41.4448 37.1646 41.3571 37.1286C41.2694 37.0925 41.1897 37.0397 41.1226 36.9731C41.0555 36.9064 41.0022 36.8274 40.9659 36.7403C40.9296 36.6533 40.9109 36.56 40.9109 36.4658C40.9109 36.3716 40.9296 36.2783 40.9659 36.1913C41.0022 36.1043 41.0555 36.0252 41.1226 35.9586C41.1897 35.892 41.2694 35.8391 41.3571 35.8031C41.4448 35.767 41.5388 35.7485 41.6338 35.7485H58.7991C58.9907 35.7487 59.1743 35.8244 59.3097 35.9589C59.4451 36.0934 59.5212 36.2757 59.5212 36.4658C59.5212 36.6559 59.4451 36.8383 59.3097 36.9728C59.1743 37.1073 58.9907 37.183 58.7991 37.1832Z" fill="#272D2D" fill-opacity="0.27"/>
<path d="M61.7808 39.6042H41.6336C41.5386 39.6043 41.4445 39.5858 41.3567 39.5498C41.2689 39.5138 41.1891 39.461 41.1219 39.3944C41.0547 39.3278 41.0014 39.2487 40.965 39.1616C40.9286 39.0745 40.9099 38.9811 40.9099 38.8869C40.9099 38.7926 40.9286 38.6993 40.965 38.6122C41.0014 38.5251 41.0547 38.446 41.1219 38.3793C41.1891 38.3127 41.2689 38.2599 41.3567 38.2239C41.4445 38.1879 41.5386 38.1694 41.6336 38.1695H61.7808C61.8758 38.1694 61.9699 38.1879 62.0577 38.2239C62.1455 38.2599 62.2253 38.3127 62.2925 38.3793C62.3597 38.446 62.413 38.5251 62.4494 38.6122C62.4858 38.6993 62.5045 38.7926 62.5045 38.8869C62.5045 38.9811 62.4858 39.0745 62.4494 39.1616C62.413 39.2487 62.3597 39.3278 62.2925 39.3944C62.2253 39.461 62.1455 39.5138 62.0577 39.5498C61.9699 39.5858 61.8758 39.6043 61.7808 39.6042Z" fill="#272D2D" fill-opacity="0.27"/>
<path d="M58.7991 45.8848H41.6338C41.442 45.8848 41.2582 45.8092 41.1226 45.6747C40.987 45.5402 40.9109 45.3577 40.9109 45.1675C40.9109 44.9772 40.987 44.7947 41.1226 44.6602C41.2582 44.5257 41.442 44.4501 41.6338 44.4501H58.7991C58.9908 44.4501 59.1747 44.5257 59.3103 44.6602C59.4458 44.7947 59.522 44.9772 59.522 45.1675C59.522 45.3577 59.4458 45.5402 59.3103 45.6747C59.1747 45.8092 58.9908 45.8848 58.7991 45.8848Z" fill="#272D2D" fill-opacity="0.27"/>
<path d="M61.781 48.3058H41.6338C41.442 48.3058 41.2582 48.2302 41.1226 48.0957C40.987 47.9612 40.9109 47.7787 40.9109 47.5885C40.9109 47.3982 40.987 47.2158 41.1226 47.0812C41.2582 46.9467 41.442 46.8711 41.6338 46.8711H61.781C61.9727 46.8711 62.1566 46.9467 62.2921 47.0812C62.4277 47.2158 62.5039 47.3982 62.5039 47.5885C62.5039 47.7787 62.4277 47.9612 62.2921 48.0957C62.1566 48.2302 61.9727 48.3058 61.781 48.3058Z" fill="#272D2D" fill-opacity="0.27"/>
<path d="M34.84 40.6928C36.5338 40.6928 37.9068 39.3302 37.9068 37.6494C37.9068 35.9686 36.5338 34.606 34.84 34.606C33.1463 34.606 31.7732 35.9686 31.7732 37.6494C31.7732 39.3302 33.1463 40.6928 34.84 40.6928Z" fill="#272D2D" fill-opacity="0.27"/>
<path d="M34.84 49.4648C36.5338 49.4648 37.9068 48.1022 37.9068 46.4214C37.9068 44.7406 36.5338 43.3781 34.84 43.3781C33.1463 43.3781 31.7732 44.7406 31.7732 46.4214C31.7732 48.1022 33.1463 49.4648 34.84 49.4648Z" fill="#272D2D" fill-opacity="0.27"/>
<path d="M58.7991 54.6568H41.6338C41.442 54.6568 41.2582 54.5812 41.1226 54.4467C40.987 54.3122 40.9109 54.1297 40.9109 53.9395C40.9109 53.7492 40.987 53.5667 41.1226 53.4322C41.2582 53.2977 41.442 53.2221 41.6338 53.2221H58.7991C58.9908 53.2221 59.1747 53.2977 59.3103 53.4322C59.4458 53.5667 59.522 53.7492 59.522 53.9395C59.522 54.1297 59.4458 54.3122 59.3103 54.4467C59.1747 54.5812 58.9908 54.6568 58.7991 54.6568Z" fill="#272D2D" fill-opacity="0.27"/>
<path d="M61.781 57.0779H41.6338C41.442 57.0779 41.2582 57.0023 41.1226 56.8677C40.987 56.7332 40.9109 56.5508 40.9109 56.3605C40.9109 56.1703 40.987 55.9878 41.1226 55.8533C41.2582 55.7187 41.442 55.6432 41.6338 55.6432H61.781C61.9727 55.6432 62.1566 55.7187 62.2921 55.8533C62.4277 55.9878 62.5039 56.1703 62.5039 56.3605C62.5039 56.5508 62.4277 56.7332 62.2921 56.8677C62.1566 57.0023 61.9727 57.0779 61.781 57.0779Z" fill="#272D2D" fill-opacity="0.27"/>
<path d="M34.84 58.2368C36.5338 58.2368 37.9068 56.8743 37.9068 55.1935C37.9068 53.5127 36.5338 52.1501 34.84 52.1501C33.1463 52.1501 31.7732 53.5127 31.7732 55.1935C31.7732 56.8743 33.1463 58.2368 34.84 58.2368Z" fill="#272D2D" fill-opacity="0.27"/>
</g>
<defs>
<clipPath id="clip0_64_232">
<rect width="68" height="63" fill="white"/>
</clipPath>
</defs>
</svg>
