<svg width="66" height="44" viewBox="0 0 66 44" fill="none" xmlns="http://www.w3.org/2000/svg">
<g clip-path="url(#clip0_67_163)">
<path d="M64.4974 40.1106H6.13673C5.73834 40.1101 5.3564 39.9495 5.0747 39.664C4.79299 39.3785 4.63454 38.9914 4.63409 38.5876V2.11321C4.63441 1.81739 4.75049 1.53378 4.95687 1.3246C5.16324 1.11542 5.44306 0.997747 5.73492 0.997406H64.8801C65.177 0.997748 65.4617 1.11745 65.6716 1.33025C65.8816 1.54305 65.9997 1.83156 66 2.1325V38.5876C65.9995 38.9914 65.8411 39.3785 65.5594 39.664C65.2777 39.9495 64.8957 40.1101 64.4974 40.1106Z" fill="#F2F2F2"/>
<path d="M62.6104 38.1877H8.21984C7.42253 38.1877 6.77388 37.572 6.77388 36.8153V5.05295C6.77388 4.49173 7.25454 4.03513 7.84537 4.03513H62.9671C63.5678 4.03513 64.0564 4.49926 64.0564 5.06972V36.8153C64.0564 37.572 63.4077 38.1877 62.6104 38.1877Z" fill="white"/>
<path d="M65.9791 2.30301H4.61299V1.52762C4.61357 1.12248 4.77268 0.734125 5.0554 0.447741C5.33813 0.161357 5.72139 0.000334708 6.1211 0H64.471C64.8707 0.000332757 65.2539 0.161355 65.5367 0.447739C65.8194 0.734124 65.9785 1.12248 65.9791 1.52762V2.30301Z" fill="#3F3D56"/>
<path d="M7.35376 1.54918C7.5692 1.54918 7.74384 1.37216 7.74384 1.1538C7.74384 0.935439 7.5692 0.758423 7.35376 0.758423C7.13832 0.758423 6.96367 0.935439 6.96367 1.1538C6.96367 1.37216 7.13832 1.54918 7.35376 1.54918Z" fill="white"/>
<path d="M8.83443 1.54918C9.04987 1.54918 9.22452 1.37216 9.22452 1.1538C9.22452 0.935439 9.04987 0.758423 8.83443 0.758423C8.61899 0.758423 8.44434 0.935439 8.44434 1.1538C8.44434 1.37216 8.61899 1.54918 8.83443 1.54918Z" fill="white"/>
<path d="M10.3151 1.54918C10.5305 1.54918 10.7052 1.37216 10.7052 1.1538C10.7052 0.935439 10.5305 0.758423 10.3151 0.758423C10.0997 0.758423 9.92502 0.935439 9.92502 1.1538C9.92502 1.37216 10.0997 1.54918 10.3151 1.54918Z" fill="white"/>
<path d="M50.7551 12.5886H24.985C23.9533 12.5886 23.1169 13.4364 23.1169 14.4821V14.4821C23.1169 15.5279 23.9533 16.3756 24.985 16.3756H50.7551C51.7869 16.3756 52.6233 15.5279 52.6233 14.4821C52.6233 13.4364 51.7869 12.5886 50.7551 12.5886Z" fill="#E6E6E6"/>
<path d="M50.7551 18.855H24.985C23.9533 18.855 23.1169 19.7028 23.1169 20.7485V20.7485C23.1169 21.7943 23.9533 22.642 24.985 22.642H50.7551C51.7869 22.642 52.6233 21.7943 52.6233 20.7485C52.6233 19.7028 51.7869 18.855 50.7551 18.855Z" fill="#E6E6E6"/>
<path d="M50.7551 25.1214H24.985C23.9533 25.1214 23.1169 25.9692 23.1169 27.015V27.015C23.1169 28.0607 23.9533 28.9085 24.985 28.9085H50.7551C51.7869 28.9085 52.6233 28.0607 52.6233 27.015C52.6233 25.9692 51.7869 25.1214 50.7551 25.1214Z" fill="#E6E6E6"/>
<path d="M19.8384 22.6869C20.8946 22.6869 21.7508 21.8191 21.7508 20.7485C21.7508 19.678 20.8946 18.8102 19.8384 18.8102C18.7822 18.8102 17.9259 19.678 17.9259 20.7485C17.9259 21.8191 18.7822 22.6869 19.8384 22.6869Z" fill="#E6E6E6"/>
<path d="M20.5212 20.615L19.9405 19.982C19.9275 19.9678 19.9117 19.9564 19.8941 19.9487C19.8766 19.9409 19.8576 19.9369 19.8384 19.9369C19.8193 19.9369 19.8003 19.9409 19.7828 19.9487C19.7652 19.9564 19.7494 19.9678 19.7364 19.982L19.1556 20.615C19.1474 20.6239 19.1411 20.6343 19.1369 20.6457C19.1327 20.6571 19.1308 20.6692 19.1312 20.6813C19.1317 20.6934 19.1345 20.7053 19.1394 20.7164C19.1444 20.7274 19.1515 20.7373 19.1603 20.7456C19.169 20.7538 19.1793 20.7603 19.1905 20.7645C19.2018 20.7687 19.2137 20.7707 19.2256 20.7702C19.2376 20.7698 19.2494 20.767 19.2602 20.7619C19.2711 20.7569 19.2809 20.7497 19.2891 20.7408L19.7472 20.2413V21.4679C19.7472 21.4923 19.7568 21.5158 19.7739 21.5331C19.791 21.5504 19.8141 21.5602 19.8383 21.5602C19.8624 21.5602 19.8856 21.5504 19.9027 21.5331C19.9198 21.5158 19.9294 21.4923 19.9294 21.4679V20.2409L20.3877 20.7408C20.4042 20.7587 20.4269 20.7692 20.4511 20.7701C20.4752 20.7709 20.4987 20.7621 20.5163 20.7454C20.534 20.7288 20.5444 20.7057 20.5454 20.6812C20.5463 20.6568 20.5376 20.633 20.5212 20.615Z" fill="white"/>
<path d="M19.8384 28.9533C20.8946 28.9533 21.7508 28.0855 21.7508 27.015C21.7508 25.9444 20.8946 25.0766 19.8384 25.0766C18.7822 25.0766 17.9259 25.9444 17.9259 27.015C17.9259 28.0855 18.7822 28.9533 19.8384 28.9533Z" fill="#E6E6E6"/>
<path d="M20.5212 26.8815L19.9405 26.2484C19.9275 26.2342 19.9117 26.2229 19.8941 26.2151C19.8766 26.2073 19.8576 26.2033 19.8384 26.2033C19.8193 26.2033 19.8003 26.2073 19.7828 26.2151C19.7652 26.2228 19.7494 26.2342 19.7364 26.2484L19.1556 26.8815C19.1474 26.8903 19.141 26.9008 19.1368 26.9121C19.1326 26.9235 19.1307 26.9356 19.1311 26.9478C19.1316 26.9599 19.1343 26.9718 19.1393 26.9829C19.1443 26.9939 19.1514 27.0039 19.1602 27.0121C19.1689 27.0204 19.1792 27.0268 19.1905 27.0311C19.2017 27.0353 19.2136 27.0372 19.2256 27.0368C19.2376 27.0363 19.2494 27.0335 19.2602 27.0284C19.2711 27.0234 19.2809 27.0162 19.2891 27.0073L19.7472 26.5077V27.7343C19.7472 27.7588 19.7568 27.7822 19.7739 27.7995C19.791 27.8169 19.8141 27.8266 19.8383 27.8266C19.8624 27.8266 19.8856 27.8169 19.9027 27.7995C19.9198 27.7822 19.9294 27.7588 19.9294 27.7343V26.5073L20.3877 27.0072C20.4042 27.0251 20.427 27.0356 20.4511 27.0365C20.4752 27.0374 20.4987 27.0285 20.5163 27.0118C20.534 26.9952 20.5445 26.9721 20.5454 26.9477C20.5463 26.9232 20.5376 26.8994 20.5212 26.8815Z" fill="white"/>
<path d="M19.8384 16.4205C20.8946 16.4205 21.7508 15.5526 21.7508 14.4821C21.7508 13.4116 20.8946 12.5437 19.8384 12.5437C18.7822 12.5437 17.9259 13.4116 17.9259 14.4821C17.9259 15.5526 18.7822 16.4205 19.8384 16.4205Z" fill="#C8D5B9"/>
<path d="M20.5212 14.3486L19.9405 13.7156C19.9275 13.7013 19.9117 13.69 19.8941 13.6822C19.8766 13.6745 19.8576 13.6705 19.8384 13.6705C19.8193 13.6705 19.8003 13.6745 19.7828 13.6822C19.7652 13.69 19.7494 13.7013 19.7364 13.7156L19.1556 14.3486C19.1474 14.3575 19.141 14.3679 19.1368 14.3793C19.1326 14.3907 19.1307 14.4028 19.1311 14.4149C19.1316 14.427 19.1343 14.439 19.1393 14.45C19.1443 14.4611 19.1514 14.471 19.1602 14.4793C19.1689 14.4875 19.1792 14.494 19.1905 14.4982C19.2017 14.5024 19.2136 14.5044 19.2256 14.5039C19.2376 14.5035 19.2494 14.5006 19.2602 14.4956C19.2711 14.4905 19.2809 14.4833 19.2891 14.4744L19.7472 13.9748V15.2014C19.7472 15.2259 19.7568 15.2494 19.7739 15.2667C19.791 15.284 19.8141 15.2937 19.8383 15.2937C19.8624 15.2937 19.8856 15.284 19.9027 15.2667C19.9198 15.2494 19.9294 15.2259 19.9294 15.2014V13.9745L20.3877 14.4744C20.4042 14.4923 20.427 14.5028 20.4511 14.5036C20.4752 14.5045 20.4987 14.4956 20.5163 14.479C20.534 14.4623 20.5445 14.4393 20.5454 14.4148C20.5463 14.3904 20.5376 14.3666 20.5212 14.3486Z" fill="white"/>
<path d="M18.0451 14.4303C17.9118 14.4173 17.7773 14.4341 17.6512 14.4795C17.525 14.5249 17.4102 14.5977 17.3148 14.6929C17.2194 14.7881 17.1457 14.9034 17.0991 15.0306C17.0524 15.1577 17.0338 15.2937 17.0445 15.429L14.0659 16.7577L15.4868 17.6873L18.0975 16.283C18.3205 16.2496 18.5236 16.1344 18.6684 15.9594C18.8132 15.7843 18.8896 15.5614 18.8832 15.3331C18.8767 15.1047 18.7878 14.8867 18.6333 14.7203C18.4789 14.5539 18.2696 14.4507 18.0451 14.4303Z" fill="#A0616A"/>
<path d="M6.03016 12.7728C7.26548 12.7728 8.26691 11.7578 8.26691 10.5057C8.26691 9.25367 7.26548 8.23866 6.03016 8.23866C4.79483 8.23866 3.7934 9.25367 3.7934 10.5057C3.7934 11.7578 4.79483 12.7728 6.03016 12.7728Z" fill="#A0616A"/>
<path d="M10.0784 42.832L11.1949 42.8319L11.726 38.4671L10.0782 38.4671L10.0784 42.832Z" fill="#A0616A"/>
<path d="M9.79356 42.4625L11.9923 42.4624H11.9924C12.1764 42.4624 12.3586 42.4992 12.5286 42.5705C12.6986 42.6419 12.8531 42.7465 12.9832 42.8784C13.1133 43.0103 13.2166 43.1668 13.287 43.3392C13.3574 43.5115 13.3936 43.6961 13.3936 43.8827V43.9288L9.79362 43.9289L9.79356 42.4625Z" fill="#2F2E41"/>
<path d="M5.43382 42.832L6.55033 42.8319L7.08145 38.4671L5.43364 38.4671L5.43382 42.832Z" fill="#A0616A"/>
<path d="M5.14903 42.4625L7.34779 42.4624H7.34788C7.53189 42.4624 7.71411 42.4992 7.88411 42.5705C8.05412 42.6419 8.20859 42.7465 8.33871 42.8784C8.46882 43.0103 8.57204 43.1668 8.64246 43.3392C8.71287 43.5115 8.74911 43.6961 8.74911 43.8827V43.9288L5.1491 43.9289L5.14903 42.4625Z" fill="#2F2E41"/>
<path d="M5.2157 41.7985C5.17226 41.7597 5.13742 41.712 5.11349 41.6585C5.08956 41.605 5.07708 41.547 5.07688 41.4883L5.02434 25.1319L10.8548 24.9041L10.8976 24.9025L11.8565 34.7137L11.9766 40.964C11.9789 41.0672 11.9431 41.1675 11.8761 41.2453C11.8092 41.3232 11.716 41.3728 11.6148 41.3846L10.1995 41.5534C10.1434 41.5601 10.0865 41.555 10.0324 41.5384C9.97831 41.5217 9.9282 41.4939 9.88524 41.4566C9.84227 41.4194 9.80738 41.3736 9.78275 41.322C9.75812 41.2704 9.74429 41.2142 9.74213 41.157L9.49017 34.5169L8.26672 30.3832C8.25385 30.3552 8.23211 30.3323 8.20497 30.3183C8.17782 30.3043 8.14683 30.2998 8.11691 30.3057C8.087 30.3116 8.05988 30.3274 8.03987 30.3507C8.01986 30.374 8.00811 30.4034 8.00649 30.4343L7.53025 41.3043C7.52543 41.402 7.48674 41.4947 7.42102 41.5662C7.3553 41.6378 7.26677 41.6835 7.17104 41.6953L5.53673 41.8992C5.47924 41.9064 5.42089 41.9012 5.36554 41.8838C5.31019 41.8665 5.25912 41.8374 5.2157 41.7985Z" fill="#2F2E41"/>
<path d="M4.84731 25.7124L3.11991 18.6023C2.58166 16.3868 3.81122 14.1561 5.86084 13.6296C6.34175 13.5052 6.84338 13.4865 7.33202 13.5748C7.82066 13.6631 8.28499 13.8564 8.69383 14.1416C9.15861 14.4675 9.55036 14.8891 9.84349 15.3789C10.1366 15.8686 10.3246 16.4155 10.395 16.9839L11.5234 25.4012C11.5311 25.4591 11.5268 25.5179 11.5106 25.5739C11.4944 25.6299 11.4668 25.6818 11.4295 25.7263C11.3922 25.7707 11.3461 25.8067 11.2941 25.8319C11.2422 25.8571 11.1856 25.8709 11.128 25.8724L5.25599 26.0283C5.25241 26.0284 5.24885 26.0284 5.2453 26.0284C5.15375 26.028 5.06495 25.9967 4.99289 25.9395C4.92083 25.8823 4.86961 25.8024 4.84731 25.7124Z" fill="#C8D5B9"/>
<path d="M12.0838 19.1437L7.70441 16.9877C7.52127 16.8975 7.35859 16.7698 7.22666 16.6126C7.09472 16.4554 6.99642 16.2722 6.93795 16.0746C6.87949 15.8769 6.86215 15.6691 6.88702 15.4642C6.91189 15.2594 6.97843 15.0621 7.08243 14.8847C7.18644 14.7073 7.32564 14.5537 7.49123 14.4336C7.65683 14.3135 7.84521 14.2296 8.04445 14.1872C8.2437 14.1447 8.44947 14.1446 8.64874 14.1869C8.84802 14.2292 9.03647 14.313 9.20216 14.4329L12.7455 16.9977L16.5706 15.4538C16.6467 15.4229 16.7303 15.4159 16.8104 15.4338C16.8905 15.4517 16.9635 15.4936 17.0197 15.5542L17.5356 16.1062C17.5768 16.1503 17.608 16.203 17.6269 16.2607C17.6458 16.3183 17.6521 16.3795 17.6451 16.4398C17.6382 16.5002 17.6183 16.5583 17.5868 16.61C17.5553 16.6617 17.513 16.7057 17.4628 16.7391L14.0384 19.0162C13.751 19.2062 13.4201 19.3178 13.0776 19.3401C12.7352 19.3625 12.3928 19.2948 12.0838 19.1437Z" fill="#C8D5B9"/>
<path d="M5.16512 12.6306C4.98952 12.634 4.81538 12.5976 4.6555 12.5239C4.58417 12.4921 4.51013 12.4659 4.43893 12.4341C3.81016 12.153 3.39596 11.3782 3.38112 10.5985C3.3793 10.2184 3.45394 9.84182 3.60049 9.49188C3.74705 9.14195 3.96244 8.82597 4.23351 8.56322C4.74518 8.08603 5.40152 7.79903 6.0951 7.74919C6.8191 7.68541 7.63433 7.89784 8.0389 8.59546C8.10039 8.68753 8.14268 8.79137 8.16318 8.90059C8.18367 9.00982 8.18194 9.12214 8.15809 9.23066C8.1399 9.29668 8.1059 9.35711 8.0591 9.40659C7.87843 9.59257 7.69831 9.45273 7.51413 9.44037C7.26098 9.42339 7.0336 9.66048 6.95188 9.93822C6.87016 10.216 6.90613 10.5217 6.97212 10.805L6.97333 10.8103C6.98826 10.8764 6.98904 10.945 6.97564 11.0115C6.96223 11.078 6.93494 11.1407 6.8956 11.1956C6.85626 11.2505 6.80578 11.2962 6.74756 11.3297C6.68934 11.3632 6.62473 11.3836 6.55806 11.3897C6.27963 11.4151 5.97378 11.431 5.88647 11.3895C5.71549 11.3082 5.48579 11.3262 5.38628 11.5065C5.35435 11.5731 5.333 11.6444 5.32304 11.7177C5.23383 12.188 5.25433 12.1603 5.16512 12.6306Z" fill="#2F2E41"/>
<path d="M4.53252 29.4855C4.61245 29.3766 4.66787 29.2513 4.69485 29.1184C4.72184 28.9855 4.71975 28.8482 4.68872 28.7162C4.6577 28.5842 4.59849 28.4607 4.51528 28.3544C4.43207 28.2481 4.32687 28.1616 4.2071 28.101L4.62661 24.83L3.10659 25.5813L2.94126 28.5723C2.85409 28.783 2.8462 29.0187 2.91908 29.2349C2.99196 29.4511 3.14056 29.6327 3.3367 29.7453C3.53284 29.8578 3.76291 29.8935 3.98331 29.8457C4.20371 29.7978 4.39912 29.6696 4.53252 29.4855Z" fill="#A0616A"/>
<path d="M4.70698 27.4929C4.6793 27.5026 4.65069 27.5094 4.62161 27.5131L3.08751 27.7098C3.02977 27.7172 2.97115 27.712 2.91553 27.6947C2.85991 27.6773 2.80858 27.6481 2.76495 27.6091C2.72131 27.5701 2.68638 27.5221 2.66248 27.4683C2.63857 27.4145 2.62624 27.3562 2.6263 27.2972L2.63842 16.4402C2.6402 16.126 2.75282 15.8228 2.95591 15.5853C3.159 15.3479 3.43918 15.1919 3.74583 15.1455C3.9396 15.1172 4.13718 15.1338 4.32366 15.1942C4.51015 15.2546 4.68065 15.3572 4.8223 15.4941C4.96396 15.6311 5.07305 15.7989 5.14135 15.9848C5.20965 16.1708 5.23537 16.3701 5.21657 16.5676L4.77088 21.2463L4.97978 27.0861C4.98336 27.1746 4.95877 27.2619 4.90965 27.3351C4.86053 27.4084 4.78948 27.4637 4.70698 27.4929Z" fill="#C8D5B9"/>
<path d="M18.8513 44H0.0910692C0.0669161 44 0.0437523 43.9903 0.0266735 43.973C0.00959469 43.9557 0 43.9322 0 43.9077C0 43.8832 0.00959469 43.8597 0.0266735 43.8424C0.0437523 43.8251 0.0669161 43.8154 0.0910692 43.8154H18.8513C18.8755 43.8154 18.8986 43.8251 18.9157 43.8424C18.9328 43.8597 18.9424 43.8832 18.9424 43.9077C18.9424 43.9322 18.9328 43.9557 18.9157 43.973C18.8986 43.9903 18.8755 44 18.8513 44Z" fill="#CCCCCC"/>
</g>
<defs>
<clipPath id="clip0_67_163">
<rect width="66" height="44" fill="white"/>
</clipPath>
</defs>
</svg>
